g Cube.020
v -1.425197 0.1748423 -0.7498483
v -1.369394 0.1748423 -0.7574961
v 1.369394 0.1748423 -0.7574961
v 1.425197 0.1748423 -0.7498483
v -1.466048 0.1748423 -0.7289541
v 1.466048 0.1748423 -0.7289541
v -1.481001 0.1748423 -0.700412
v 1.481001 0.1748423 -0.700412
v -1.481001 0.1748424 0.700412
v 1.481001 0.1748424 0.700412
v -1.466048 0.1748424 0.7289541
v 1.466048 0.1748424 0.7289541
v -1.425197 0.1748424 0.7498483
v 1.425197 0.1748424 0.7498483
v -1.369394 0.1748424 0.7574961
v 1.369394 0.1748424 0.7574961
v -1.425197 0.006700277 0.7498483
v -1.466048 0.006700277 0.7289541
v -1.466048 0.1748424 0.7289541
v -1.425197 0.1748424 0.7498483
v -1.369394 0.006700277 0.7574961
v -1.369394 0.1748424 0.7574961
v 1.369394 0.006700277 0.7574961
v 1.369394 0.1748424 0.7574961
v 1.425197 0.006700277 0.7498483
v 1.425197 0.1748424 0.7498483
v 1.466048 0.006700277 0.7289541
v 1.466048 0.1748424 0.7289541
v -1.466048 0.006700277 0.7289541
v -1.481001 0.1748424 0.700412
v -1.466048 0.1748424 0.7289541
v -1.481001 0.006700277 0.700412
v -1.481001 0.1748423 -0.700412
v -1.481001 0.006700218 -0.700412
v -1.466048 0.1748423 -0.7289541
v -1.466048 0.006700218 -0.7289541
v -1.425197 0.1748423 -0.7498483
v -1.466048 0.1748423 -0.7289541
v -1.466048 0.006700218 -0.7289541
v -1.425197 0.006700218 -0.7498483
v -1.369394 0.1748423 -0.7574961
v -1.369394 0.006700218 -0.7574961
v 1.369394 0.1748423 -0.7574961
v 1.369394 0.006700218 -0.7574961
v 1.425197 0.1748423 -0.7498483
v 1.425197 0.006700218 -0.7498483
v 1.466048 0.1748423 -0.7289541
v 1.466048 0.006700218 -0.7289541
v 1.481001 0.1748423 -0.700412
v 1.466048 0.1748423 -0.7289541
v 1.466048 0.006700218 -0.7289541
v 1.481001 0.006700218 -0.700412
v 1.481001 0.1748424 0.700412
v 1.481001 0.006700277 0.700412
v 1.466048 0.1748424 0.7289541
v 1.466048 0.006700277 0.7289541
v 1.425197 0.006700218 -0.7498483
v 1.369394 0.006700218 -0.7574961
v -1.369394 0.006700218 -0.7574961
v -1.425197 0.006700218 -0.7498483
v 1.466048 0.006700218 -0.7289541
v -1.466048 0.006700218 -0.7289541
v 1.481001 0.006700218 -0.700412
v -1.481001 0.006700218 -0.700412
v 1.481001 0.006700277 0.700412
v -1.481001 0.006700277 0.700412
v 1.466048 0.006700277 0.7289541
v -1.466048 0.006700277 0.7289541
v 1.425197 0.006700277 0.7498483
v -1.425197 0.006700277 0.7498483
v 1.369394 0.006700277 0.7574961
v -1.369394 0.006700277 0.7574961
vt 0.787844 0.5346854
vt 0.791467 0.5351313
vt 0.9692748 0.5351313
vt 0.9728978 0.5346854
vt 0.7851918 0.5334671
vt 0.9755501 0.5334671
vt 0.7842208 0.531803
vt 0.9765208 0.531803
vt 0.7842208 0.4501306
vt 0.9765208 0.4501306
vt 0.7851918 0.4484664
vt 0.9755501 0.4484664
vt 0.7878439 0.4472482
vt 0.9728978 0.4472482
vt 0.791467 0.4468023
vt 0.9692748 0.4468023
vt 0.7988281 0.5218862
vt 0.7988281 0.5218862
vt 0.7988281 0.5218862
vt 0.7988281 0.5218862
vt 0.7988281 0.5218862
vt 0.7988281 0.5218862
vt 0.7988281 0.5218862
vt 0.7988281 0.5218862
vt 0.7988281 0.5218862
vt 0.7988281 0.5218862
vt 0.7988281 0.5218862
vt 0.7988281 0.5218862
vt 0.7988281 0.5218862
vt 0.7988281 0.5218862
vt 0.7988281 0.5218862
vt 0.7988281 0.5218862
vt 0.7988281 0.5218862
vt 0.7988281 0.5218862
vt 0.7988281 0.5218862
vt 0.7988281 0.5218862
vt 0.7988281 0.5218862
vt 0.7988281 0.5218862
vt 0.7988281 0.5218862
vt 0.7988281 0.5218862
vt 0.7988281 0.5218862
vt 0.7988281 0.5218862
vt 0.7988281 0.5218862
vt 0.7988281 0.5218862
vt 0.7988281 0.5218862
vt 0.7988281 0.5218862
vt 0.7988281 0.5218862
vt 0.7988281 0.5218862
vt 0.7988281 0.5218862
vt 0.7988281 0.5218862
vt 0.7988281 0.5218862
vt 0.7988281 0.5218862
vt 0.7988281 0.5218862
vt 0.7988281 0.5218862
vt 0.7988281 0.5218862
vt 0.7988281 0.5218862
vt 0.7988281 0.5218862
vt 0.7988281 0.5218862
vt 0.7988281 0.5218862
vt 0.7988281 0.5218862
vt 0.7988281 0.5218862
vt 0.7988281 0.5218862
vt 0.7988281 0.5218862
vt 0.7988281 0.5218862
vt 0.7988281 0.5218862
vt 0.7988281 0.5218862
vt 0.7988281 0.5218862
vt 0.7988281 0.5218862
vt 0.7988281 0.5218862
vt 0.7988281 0.5218862
vt 0.7988281 0.5218862
vt 0.7988281 0.5218862
vn 0 1 0
vn 0 1 0
vn 0 1 0
vn 0 1 0
vn 0 1 0
vn 0 1 0
vn 0 1 0
vn 0 1 0
vn 0 1 0
vn 0 1 0
vn 0 1 0
vn 0 1 0
vn 0 1 0
vn 0 1 0
vn 0 1 0
vn 0 1 0
vn -0.2998099 0 0.953999
vn -0.4553676 0 0.8903035
vn -0.4553676 0 0.8903035
vn -0.2998099 0 0.953999
vn -0.06804818 0 0.997682
vn -0.06804818 0 0.997682
vn 0.06804818 0 0.997682
vn 0.06804818 0 0.997682
vn 0.2998099 0 0.953999
vn 0.2998099 0 0.953999
vn 0.4553676 0 0.8903035
vn 0.4553676 0 0.8903035
vn -0.8858086 0 0.4640509
vn -0.9710326 0 0.2389471
vn -0.8858086 0 0.4640509
vn -0.9710326 0 0.2389471
vn -0.9710326 0 -0.2389471
vn -0.9710326 0 -0.2389471
vn -0.8858086 0 -0.4640509
vn -0.8858086 0 -0.4640509
vn -0.2998099 0 -0.953999
vn -0.4553676 0 -0.8903035
vn -0.4553676 0 -0.8903035
vn -0.2998099 0 -0.953999
vn -0.06804819 0 -0.997682
vn -0.06804819 0 -0.997682
vn 0.06804819 0 -0.997682
vn 0.06804819 0 -0.997682
vn 0.2998099 0 -0.953999
vn 0.2998099 0 -0.953999
vn 0.4553676 0 -0.8903035
vn 0.4553676 0 -0.8903035
vn 0.9710326 0 -0.2389471
vn 0.8858086 0 -0.4640509
vn 0.8858086 0 -0.4640509
vn 0.9710326 0 -0.2389471
vn 0.9710326 0 0.2389471
vn 0.9710326 0 0.2389471
vn 0.8858086 0 0.4640509
vn 0.8858086 0 0.4640509
vn 0 -1 0
vn 0 -1 0
vn 0 -1 0
vn 0 -1 0
vn 0 -1 0
vn 0 -1 0
vn 0 -1 0
vn 0 -1 0
vn 0 -1 0
vn 0 -1 0
vn 0 -1 0
vn 0 -1 0
vn 0 -1 0
vn 0 -1 0
vn 0 -1 0
vn 0 -1 0
g Cube.020_0
f 3/3/3 2/2/2 1/1/1
f 1/1/1 4/4/4 3/3/3
f 1/1/1 5/5/5 4/4/4
f 5/5/5 6/6/6 4/4/4
f 5/5/5 7/7/7 6/6/6
f 7/7/7 8/8/8 6/6/6
f 7/7/7 9/9/9 8/8/8
f 9/9/9 10/10/10 8/8/8
f 9/9/9 11/11/11 10/10/10
f 11/11/11 12/12/12 10/10/10
f 11/11/11 13/13/13 12/12/12
f 13/13/13 14/14/14 12/12/12
f 13/13/13 15/15/15 14/14/14
f 15/15/15 16/16/16 14/14/14
f 19/19/19 18/18/18 17/17/17
f 20/20/20 19/19/19 17/17/17
f 20/20/20 17/17/17 21/21/21
f 22/22/22 20/20/20 21/21/21
f 22/22/22 21/21/21 23/23/23
f 24/24/24 22/22/22 23/23/23
f 23/23/23 25/25/25 24/24/24
f 25/25/25 26/26/26 24/24/24
f 25/25/25 27/27/27 26/26/26
f 27/27/27 28/28/28 26/26/26
f 31/31/31 30/30/30 29/29/29
f 30/30/30 32/32/32 29/29/29
f 30/30/30 33/33/33 32/32/32
f 33/33/33 34/34/34 32/32/32
f 34/34/34 33/33/33 35/35/35
f 36/36/36 34/34/34 35/35/35
f 39/39/39 38/38/38 37/37/37
f 40/40/40 39/39/39 37/37/37
f 40/40/40 37/37/37 41/41/41
f 42/42/42 40/40/40 41/41/41
f 41/41/41 43/43/43 42/42/42
f 43/43/43 44/44/44 42/42/42
f 44/44/44 43/43/43 45/45/45
f 46/46/46 44/44/44 45/45/45
f 46/46/46 45/45/45 47/47/47
f 48/48/48 46/46/46 47/47/47
f 51/51/51 50/50/50 49/49/49
f 52/52/52 51/51/51 49/49/49
f 49/49/49 53/53/53 52/52/52
f 53/53/53 54/54/54 52/52/52
f 54/54/54 53/53/53 55/55/55
f 56/56/56 54/54/54 55/55/55
f 59/59/59 58/58/58 57/57/57
f 57/57/57 60/60/60 59/59/59
f 57/57/57 61/61/61 60/60/60
f 61/61/61 62/62/62 60/60/60
f 61/61/61 63/63/63 62/62/62
f 63/63/63 64/64/64 62/62/62
f 63/63/63 65/65/65 64/64/64
f 65/65/65 66/66/66 64/64/64
f 65/65/65 67/67/67 66/66/66
f 67/67/67 68/68/68 66/66/66
f 67/67/67 69/69/69 68/68/68
f 69/69/69 70/70/70 68/68/68
f 69/69/69 71/71/71 70/70/70
f 71/71/71 72/72/72 70/70/70
