g Cube.015
v -9.861927 9.140966 0.474103
v -9.861927 13.82568 -0.474104
v -9.861927 13.82568 0.4741028
v -9.861927 9.140967 -0.4741037
v -9.861927 0.8600009 0.4741035
v -9.861927 0.8600009 -0.4741035
v 9.861927 9.140967 -0.4741037
v 9.861927 13.82568 0.4741028
v 9.861927 13.82568 -0.474104
v 9.861927 9.140967 0.474103
v 9.861927 0.860001 -0.4741035
v 9.861927 0.860001 0.4741035
v 2.880316 -0.08006947 -0.4741034
v 2.880316 -0.08006942 0.4741034
v 9.861927 -0.08006942 0.4741034
v 9.861927 -0.08006947 -0.4741034
v -2.880316 13.82568 -0.474104
v -9.861927 13.82568 0.4741028
v -9.861927 13.82568 -0.474104
v -2.880316 13.82568 0.4741028
v 2.880316 13.82568 -0.474104
v 2.880316 13.82568 0.4741028
v 9.861927 13.82568 -0.474104
v 9.861927 13.82568 0.4741028
v -9.861927 -0.08006947 -0.4741034
v -9.861927 -0.08006942 0.4741034
v -2.880316 -0.08006942 0.4741034
v -2.880316 -0.08006947 -0.4741034
v -2.840749 8.511703 0.4741031
v -2.880316 8.30496 0.4741031
v -2.880316 9.140967 0.474103
v -2.725921 8.69821 0.474103
v -2.547072 8.846223 0.4741029
v -2.32171 8.941252 0.4741029
v -2.071894 8.973997 0.4741029
v 2.071894 8.973997 0.4741029
v 2.880316 9.140967 0.474103
v 2.32171 8.941252 0.4741029
v 2.547072 8.846223 0.4741029
v 2.725921 8.69821 0.474103
v 2.840749 8.511703 0.4741031
v 2.880316 8.30496 0.4741031
v 2.880316 0.860001 0.4741035
v 9.861927 0.860001 0.4741035
v 9.861927 9.140967 0.474103
v 2.880316 13.82568 0.4741028
v 9.861927 13.82568 0.4741028
v -2.880316 13.82568 0.4741028
v -9.861927 13.82568 0.4741028
v -9.861927 9.140966 0.474103
v -9.861927 0.8600009 0.4741035
v -2.880316 0.8600009 0.4741035
v -2.880316 8.30496 0.4741031
v -9.861927 9.140967 -0.4741037
v -2.880316 13.82568 -0.474104
v -9.861927 13.82568 -0.474104
v -2.880316 9.140967 -0.4741038
v -9.861927 0.8600009 -0.4741035
v 2.880316 13.82568 -0.474104
v -2.880316 8.30496 -0.4741038
v -2.840749 8.511703 -0.4741038
v -2.880316 0.8600009 -0.4741035
v -2.725921 8.69821 -0.4741038
v -2.547072 8.846223 -0.4741038
v -2.32171 8.941252 -0.4741038
v -2.071894 8.973997 -0.4741038
v 2.071894 8.973997 -0.4741038
v 2.880316 9.140967 -0.4741038
v 9.861927 13.82568 -0.474104
v 2.32171 8.941252 -0.4741038
v 2.547072 8.846223 -0.4741038
v 2.725921 8.69821 -0.4741038
v 2.840749 8.511703 -0.4741038
v 2.880316 8.30496 -0.4741038
v 9.861927 9.140967 -0.4741037
v 2.880316 0.860001 -0.4741035
v 9.861927 0.860001 -0.4741035
v -2.880316 0.8600009 -0.4741035
v -2.880316 -0.08006947 -0.4741034
v -2.880316 -0.08006942 0.4741034
v -2.880316 0.8600009 0.4741035
v 2.880316 8.30496 0.4741031
v 2.880316 0.860001 0.4741035
v 2.880316 0.860001 -0.4741035
v 2.880316 8.30496 -0.4741038
v 2.840749 8.511703 0.4741031
v 2.840749 8.511703 -0.4741038
v 2.725921 8.69821 0.474103
v 2.725921 8.69821 -0.4741038
v 2.547072 8.846223 0.4741029
v 2.547072 8.846223 -0.4741038
v 2.32171 8.941252 0.4741029
v 2.32171 8.941252 -0.4741038
v 2.071894 8.973997 0.4741029
v 2.071894 8.973997 -0.4741038
v -2.071894 8.973997 0.4741029
v -2.071894 8.973997 -0.4741038
v -2.32171 8.941252 0.4741029
v -2.32171 8.941252 -0.4741038
v -2.547072 8.846223 0.4741029
v -2.547072 8.846223 -0.4741038
v -2.725921 8.69821 0.474103
v -2.725921 8.69821 -0.4741038
v -2.840749 8.511703 0.4741031
v -2.840749 8.511703 -0.4741038
v -2.880316 8.30496 0.4741031
v -2.880316 8.30496 -0.4741038
v -2.880316 0.8600009 0.4741035
v -2.880316 0.8600009 -0.4741035
v 2.880316 0.860001 0.4741035
v 2.880316 -0.08006942 0.4741034
v 2.880316 -0.08006947 -0.4741034
v 2.880316 0.860001 -0.4741035
v 9.861927 -0.08006947 -0.4741034
v 9.861927 -0.08006942 0.4741034
v 9.861927 0.860001 0.4741035
v 9.861927 0.860001 -0.4741035
v -9.861927 -0.08006942 0.4741034
v -9.861927 -0.08006947 -0.4741034
v -9.861927 0.8600009 -0.4741035
v -9.861927 0.8600009 0.4741035
v 9.861927 -0.08006942 0.4741034
v 2.880316 -0.08006942 0.4741034
v 2.880316 0.860001 0.4741035
v 9.861927 0.860001 0.4741035
v 2.880316 -0.08006947 -0.4741034
v 9.861927 -0.08006947 -0.4741034
v 9.861927 0.860001 -0.4741035
v 2.880316 0.860001 -0.4741035
v -2.880316 -0.08006942 0.4741034
v -9.861927 -0.08006942 0.4741034
v -9.861927 0.8600009 0.4741035
v -2.880316 0.8600009 0.4741035
v -9.861927 -0.08006947 -0.4741034
v -2.880316 -0.08006947 -0.4741034
v -2.880316 0.8600009 -0.4741035
v -9.861927 0.8600009 -0.4741035
vt 0.08045079 0.4075412
vt 0.08479671 0.4204414
vt 0.08479671 0.4075412
vt 0.08045079 0.4204414
vt 0.07617368 0.4075412
vt 0.07617368 0.4204414
vt 0.08045079 0.4333416
vt 0.08479671 0.4462417
vt 0.08479671 0.4333416
vt 0.08045079 0.4462417
vt 0.07617368 0.4333416
vt 0.07617368 0.4462417
vt 0.1869616 0.4348918
vt 0.1869616 0.4477919
vt 0.1912617 0.4477919
vt 0.1912617 0.4348918
vt 0.0933968 0.4333416
vt 0.09769689 0.4462417
vt 0.09769689 0.4333416
vt 0.0933968 0.4462417
vt 0.08909677 0.4333416
vt 0.08909677 0.4462417
vt 0.08479671 0.4333416
vt 0.08479671 0.4462417
vt 0.1783615 0.4348918
vt 0.1783615 0.4477919
vt 0.1826616 0.4477919
vt 0.1826616 0.4348918
vt 0.0800219 0.454832
vt 0.07983015 0.4548418
vt 0.08045079 0.4548418
vt 0.08019497 0.4548034
vt 0.0804113 0.454593
vt 0.08044066 0.4544248
vt 0.08045079 0.4542384
vt 0.08045079 0.4511452
vt 0.08045079 0.4505418
vt 0.08044066 0.4509587
vt 0.0804113 0.4507905
vt 0.08019497 0.4505802
vt 0.0800219 0.4505516
vt 0.07967524 0.4505418
vt 0.07586336 0.4505418
vt 0.07617368 0.4462417
vt 0.08045079 0.4462417
vt 0.08479671 0.4505418
vt 0.08479671 0.4462417
vt 0.08479671 0.4548418
vt 0.08479671 0.4591418
vt 0.08045079 0.4591418
vt 0.07617368 0.4591418
vt 0.07586336 0.4548418
vt 0.07967524 0.4548418
vt 0.08045079 0.4204414
vt 0.08479671 0.4247415
vt 0.08479671 0.4204414
vt 0.08045079 0.4247415
vt 0.07617368 0.4204414
vt 0.08479671 0.4290415
vt 0.07967524 0.4247415
vt 0.07986705 0.424771
vt 0.07578591 0.4247415
vt 0.08004005 0.4248568
vt 0.08017735 0.4249902
vt 0.08026554 0.4251585
vt 0.08029591 0.4253449
vt 0.08029591 0.428438
vt 0.08045079 0.4290415
vt 0.08479671 0.4333416
vt 0.08026554 0.4286245
vt 0.08017735 0.4287927
vt 0.08004005 0.4289263
vt 0.07986705 0.429012
vt 0.07967524 0.4290415
vt 0.08045079 0.4333416
vt 0.07578591 0.4290415
vt 0.07617368 0.4333416
vt 0.1953059 0.456392
vt 0.1914166 0.456392
vt 0.1914166 0.456392
vt 0.1952285 0.456392
vt 0.07983015 0.4505418
vt 0.07586336 0.4505418
vt 0.07594082 0.4505418
vt 0.07983015 0.4505418
vt 0.0800219 0.4505516
vt 0.0800219 0.4505516
vt 0.08019497 0.4505802
vt 0.08019497 0.4505802
vt 0.0804113 0.4507905
vt 0.0804113 0.4507905
vt 0.08044066 0.4509587
vt 0.08044066 0.4509587
vt 0.08045079 0.4511452
vt 0.08045079 0.4511452
vt 0.08045079 0.4542384
vt 0.08045079 0.4542384
vt 0.08044066 0.4544248
vt 0.08044066 0.4544248
vt 0.0804113 0.454593
vt 0.0804113 0.454593
vt 0.08019497 0.4548034
vt 0.08019497 0.4548034
vt 0.0800219 0.454832
vt 0.0800219 0.454832
vt 0.07983015 0.4548418
vt 0.07983015 0.4548418
vt 0.07586336 0.4548418
vt 0.07594082 0.4548418
vt 0.1952285 0.452092
vt 0.1914166 0.452092
vt 0.1914166 0.452092
vt 0.1953059 0.452092
vt 0.1912617 0.4348918
vt 0.1912617 0.4477919
vt 0.1955388 0.4477919
vt 0.1955388 0.4348918
vt 0.1912617 0.4090914
vt 0.1912617 0.4219916
vt 0.1955388 0.4219916
vt 0.1955388 0.4090914
vt 0.1912617 0.4477919
vt 0.1912617 0.452092
vt 0.1952285 0.452092
vt 0.1955388 0.4477919
vt 0.1912617 0.4305917
vt 0.1912617 0.4348918
vt 0.1955388 0.4348918
vt 0.195151 0.4305917
vt 0.1912617 0.456392
vt 0.1912617 0.460692
vt 0.1955388 0.460692
vt 0.1952285 0.456392
vt 0.1912617 0.4219916
vt 0.1912617 0.4262917
vt 0.195151 0.4262917
vt 0.1955388 0.4219916
vn -1 0 0
vn -1 0 0
vn -1 0 0
vn -1 0 0
vn -1 0 0
vn -1 0 0
vn 1 0 0
vn 1 0 0
vn 1 0 0
vn 1 0 0
vn 1 0 0
vn 1 0 0
vn 0 -1 0
vn 0 -1 0
vn 0 -1 0
vn 0 -1 0
vn 0 1 0
vn 0 1 0
vn 0 1 0
vn 0 1 0
vn 0 1 0
vn 0 1 0
vn 0 1 0
vn 0 1 0
vn 0 -1 0
vn 0 -1 0
vn 0 -1 0
vn 0 -1 0
vn 0 0 1
vn 0 0 1
vn 0 0 1
vn 0 0 1
vn 0 0 1
vn 0 0 1
vn 0 0 1
vn 0 0 1
vn 0 0 1
vn 0 0 1
vn 0 0 1
vn 0 0 1
vn 0 0 1
vn 0 0 1
vn 0 0 1
vn 0 0 1
vn 0 0 1
vn 0 0 1
vn 0 0 1
vn 0 0 1
vn 0 0 1
vn 0 0 1
vn 0 0 1
vn 0 0 1
vn 0 0 1
vn 0 0 -1
vn 0 0 -1
vn 0 0 -1
vn 0 0 -1
vn 0 0 -1
vn 0 0 -1
vn 0 0 -1
vn 0 0 -1
vn 0 0 -1
vn 0 0 -1
vn 0 0 -1
vn 0 0 -1
vn 0 0 -1
vn 0 0 -1
vn 0 0 -1
vn 0 0 -1
vn 0 0 -1
vn 0 0 -1
vn 0 0 -1
vn 0 0 -1
vn 0 0 -1
vn 0 0 -1
vn 0 0 -1
vn 0 0 -1
vn 1 0 0
vn 1 0 0
vn 1 0 0
vn 1 0 0
vn -0.9955337 -0.09440671 0
vn -1 0 0
vn -1 0 0
vn -0.9955337 -0.09440672 0
vn -0.932153 -0.3620646 0
vn -0.932153 -0.3620646 0
vn -0.7546585 -0.6561178 0
vn -0.7546585 -0.6561179 0
vn -0.5185837 -0.8550269 0
vn -0.5185837 -0.8550269 0
vn -0.2616116 -0.9651732 0
vn -0.2616116 -0.9651733 0
vn -0.06512139 -0.9978774 0
vn -0.06512139 -0.9978774 0
vn 0.06512139 -0.9978774 0
vn 0.06512139 -0.9978774 0
vn 0.2616116 -0.9651732 0
vn 0.2616116 -0.9651733 0
vn 0.5185837 -0.8550269 0
vn 0.5185837 -0.8550269 0
vn 0.7546585 -0.6561178 0
vn 0.7546585 -0.6561179 0
vn 0.932153 -0.3620646 0
vn 0.932153 -0.3620646 0
vn 0.9955337 -0.09440671 0
vn 0.9955337 -0.09440672 0
vn 1 0 0
vn 1 0 0
vn -1 0 0
vn -1 0 0
vn -1 0 0
vn -1 0 0
vn 1 0 0
vn 1 0 0
vn 1 0 0
vn 1 0 0
vn -1 0 0
vn -1 0 0
vn -1 0 0
vn -1 0 0
vn 0 0 1
vn 0 0 1
vn 0 0 1
vn 0 0 1
vn 0 0 -1
vn 0 0 -1
vn 0 0 -1
vn 0 0 -1
vn 0 0 1
vn 0 0 1
vn 0 0 1
vn 0 0 1
vn 0 0 -1
vn 0 0 -1
vn 0 0 -1
vn 0 0 -1
g Cube.015_0
f 3/3/3 2/2/2 1/1/1
f 2/2/2 4/4/4 1/1/1
f 1/1/1 4/4/4 5/5/5
f 4/4/4 6/6/6 5/5/5
f 9/9/9 8/8/8 7/7/7
f 8/8/8 10/10/10 7/7/7
f 7/7/7 10/10/10 11/11/11
f 10/10/10 12/12/12 11/11/11
f 15/15/15 14/14/14 13/13/13
f 16/16/16 15/15/15 13/13/13
f 19/19/19 18/18/18 17/17/17
f 18/18/18 20/20/20 17/17/17
f 17/17/17 20/20/20 21/21/21
f 20/20/20 22/22/22 21/21/21
f 21/21/21 22/22/22 23/23/23
f 22/22/22 24/24/24 23/23/23
f 27/27/27 26/26/26 25/25/25
f 28/28/28 27/27/27 25/25/25
f 31/31/31 30/30/30 29/29/29
f 31/31/31 29/29/29 32/32/32
f 31/31/31 32/32/32 33/33/33
f 31/31/31 33/33/33 34/34/34
f 31/31/31 34/34/34 35/35/35
f 31/31/31 35/35/35 36/36/36
f 37/37/37 31/31/31 36/36/36
f 37/37/37 36/36/36 38/38/38
f 37/37/37 38/38/38 39/39/39
f 37/37/37 39/39/39 40/40/40
f 37/37/37 40/40/40 41/41/41
f 41/41/41 42/42/42 37/37/37
f 37/37/37 42/42/42 43/43/43
f 37/37/37 43/43/43 44/44/44
f 44/44/44 45/45/45 37/37/37
f 46/46/46 37/37/37 45/45/45
f 47/47/47 46/46/46 45/45/45
f 46/46/46 48/48/48 37/37/37
f 48/48/48 31/31/31 37/37/37
f 48/48/48 49/49/49 31/31/31
f 49/49/49 50/50/50 31/31/31
f 31/31/31 50/50/50 51/51/51
f 31/31/31 51/51/51 52/52/52
f 52/52/52 53/53/53 31/31/31
f 56/56/56 55/55/55 54/54/54
f 55/55/55 57/57/57 54/54/54
f 58/58/58 54/54/54 57/57/57
f 55/55/55 59/59/59 57/57/57
f 58/58/58 57/57/57 60/60/60
f 61/61/61 60/60/60 57/57/57
f 60/60/60 62/62/62 58/58/58
f 63/63/63 61/61/61 57/57/57
f 64/64/64 63/63/63 57/57/57
f 65/65/65 64/64/64 57/57/57
f 66/66/66 65/65/65 57/57/57
f 67/67/67 66/66/66 57/57/57
f 59/59/59 68/68/68 57/57/57
f 67/67/67 57/57/57 68/68/68
f 59/59/59 69/69/69 68/68/68
f 68/68/68 70/70/70 67/67/67
f 68/68/68 71/71/71 70/70/70
f 68/68/68 72/72/72 71/71/71
f 68/68/68 73/73/73 72/72/72
f 68/68/68 74/74/74 73/73/73
f 69/69/69 75/75/75 68/68/68
f 76/76/76 74/74/74 68/68/68
f 76/76/76 68/68/68 75/75/75
f 75/75/75 77/77/77 76/76/76
f 80/80/80 79/79/79 78/78/78
f 81/81/81 80/80/80 78/78/78
f 84/84/84 83/83/83 82/82/82
f 85/85/85 84/84/84 82/82/82
f 85/85/85 82/82/82 86/86/86
f 87/87/87 85/85/85 86/86/86
f 87/87/87 86/86/86 88/88/88
f 89/89/89 87/87/87 88/88/88
f 89/89/89 88/88/88 90/90/90
f 91/91/91 89/89/89 90/90/90
f 91/91/91 90/90/90 92/92/92
f 93/93/93 91/91/91 92/92/92
f 93/93/93 92/92/92 94/94/94
f 95/95/95 93/93/93 94/94/94
f 94/94/94 96/96/96 95/95/95
f 96/96/96 97/97/97 95/95/95
f 97/97/97 96/96/96 98/98/98
f 99/99/99 97/97/97 98/98/98
f 99/99/99 98/98/98 100/100/100
f 101/101/101 99/99/99 100/100/100
f 101/101/101 100/100/100 102/102/102
f 103/103/103 101/101/101 102/102/102
f 103/103/103 102/102/102 104/104/104
f 105/105/105 103/103/103 104/104/104
f 105/105/105 104/104/104 106/106/106
f 107/107/107 105/105/105 106/106/106
f 106/106/106 108/108/108 107/107/107
f 108/108/108 109/109/109 107/107/107
f 112/112/112 111/111/111 110/110/110
f 113/113/113 112/112/112 110/110/110
f 116/116/116 115/115/115 114/114/114
f 117/117/117 116/116/116 114/114/114
f 120/120/120 119/119/119 118/118/118
f 121/121/121 120/120/120 118/118/118
f 124/124/124 123/123/123 122/122/122
f 125/125/125 124/124/124 122/122/122
f 128/128/128 127/127/127 126/126/126
f 129/129/129 128/128/128 126/126/126
f 132/132/132 131/131/131 130/130/130
f 133/133/133 132/132/132 130/130/130
f 136/136/136 135/135/135 134/134/134
f 137/137/137 136/136/136 134/134/134
