g Cube.014
v 0.2257736 -0.06134589 3.317449
v 0.2257736 0.0006425828 3.317449
v 1.658412 0.0006425828 3.31745
v 1.658412 -0.06134589 3.31745
v 1.658412 -0.06134589 3.31745
v 1.658412 0.0006425828 3.31745
v 1.658412 0.0006424338 0.03814733
v 1.658412 -0.06134604 0.03814733
v -1.62089 -0.06134604 0.03814733
v -1.62089 0.0006424338 0.03814733
v -1.62089 0.0006425828 3.31745
v -1.62089 -0.06134589 3.31745
v 1.658412 -0.06134604 0.03814733
v 1.658412 0.0006424338 0.03814733
v -1.62089 0.0006424338 0.03814733
v -1.62089 -0.06134604 0.03814733
v -1.62089 -0.06134589 3.31745
v -1.62089 0.0006425828 3.31745
v -0.1882522 0.0006425828 3.317449
v -0.1882522 -0.06134589 3.317449
v 0.2257736 -0.06134589 3.376987
v 0.167909 -0.06134589 3.456856
v 0.167909 0.0006425828 3.456856
v 0.2257736 0.0006425828 3.376987
v -1.62089 0.0006425828 3.31745
v -1.62089 0.0006424338 0.03814733
v 1.658412 0.0006424338 0.03814733
v -0.1882522 0.0006425828 3.317449
v 0.2257736 0.0006425828 3.317449
v 1.658412 0.0006425828 3.31745
v -1.62089 -0.06134604 0.03814733
v -1.62089 -0.06134589 3.31745
v -0.1882522 -0.06134589 3.317449
v 0.2257736 -0.06134589 3.317449
v 1.658412 -0.06134589 3.31745
v 1.658412 -0.06134604 0.03814733
v -0.1303876 -0.06134589 3.456856
v -0.1303876 0.0006425828 3.456856
v 0.167909 0.0006425828 3.456856
v 0.167909 -0.06134589 3.456856
v 0.2257736 0.0006425828 3.376987
v 0.167909 0.0006425828 3.456856
v -0.1303876 0.0006425828 3.456856
v -0.1882522 0.0006425828 3.376987
v 0.2257736 0.0006425828 3.317449
v -0.1882522 0.0006425828 3.317449
v -0.1882522 -0.06134589 3.376987
v -0.1303876 -0.06134589 3.456856
v 0.167909 -0.06134589 3.456856
v 0.2257736 -0.06134589 3.376987
v -0.1882522 -0.06134589 3.317449
v 0.2257736 -0.06134589 3.317449
v -0.1882522 0.0006425828 3.376987
v -0.1303876 0.0006425828 3.456856
v -0.1303876 -0.06134589 3.456856
v -0.1882522 -0.06134589 3.376987
v -0.1882522 0.0006425828 3.317449
v -0.1882522 0.0006425828 3.376987
v -0.1882522 -0.06134589 3.376987
v -0.1882522 -0.06134589 3.317449
v 0.2257736 -0.06134589 3.317449
v 0.2257736 -0.06134589 3.376987
v 0.2257736 0.0006425828 3.376987
v 0.2257736 0.0006425828 3.317449
vt 0.6050028 0.5342806
vt 0.6050028 0.5342806
vt 0.6275139 0.5342806
vt 0.6275139 0.5342806
vt 0.6275139 0.5342806
vt 0.6275139 0.5342806
vt 0.6275139 0.6018141
vt 0.6275139 0.6018141
vt 0.5599805 0.6018141
vt 0.5599805 0.6018141
vt 0.5599805 0.5342806
vt 0.5599805 0.5342806
vt 0.6275139 0.6018141
vt 0.6275139 0.6018141
vt 0.5599805 0.6018141
vt 0.5599805 0.6018141
vt 0.5599805 0.5342806
vt 0.5599805 0.5342806
vt 0.5824916 0.5342806
vt 0.5824916 0.5342806
vt 0.6050028 0.5342806
vt 0.6050028 0.5342806
vt 0.6050028 0.5342806
vt 0.6050028 0.5342806
vt 0.4122715 0.15548
vt 0.4122717 0.4443523
vt 0.701144 0.4443523
vt 0.5384719 0.1554798
vt 0.5749437 0.1554798
vt 0.701144 0.1554798
vt 0.5599805 0.6018141
vt 0.5599805 0.5342806
vt 0.5824916 0.5342806
vt 0.6050028 0.5342806
vt 0.6275139 0.5342806
vt 0.6275139 0.6018141
vt 0.5824916 0.5342806
vt 0.5824916 0.5342806
vt 0.6050028 0.5342806
vt 0.6050028 0.5342806
vt 0.6050028 0.5342806
vt 0.6050028 0.5342806
vt 0.5824916 0.5342806
vt 0.5824916 0.5342806
vt 0.6050028 0.5342806
vt 0.5824916 0.5342806
vt 0.5824916 0.5342806
vt 0.5824916 0.5342806
vt 0.6050028 0.5342806
vt 0.6050028 0.5342806
vt 0.5824916 0.5342806
vt 0.6050028 0.5342806
vt 0.5824916 0.5342806
vt 0.5824916 0.5342806
vt 0.5824916 0.5342806
vt 0.5824916 0.5342806
vt 0.5824916 0.5342806
vt 0.5824916 0.5342806
vt 0.5824916 0.5342806
vt 0.5824916 0.5342806
vt 0.6050028 0.5342806
vt 0.6050028 0.5342806
vt 0.6050028 0.5342806
vt 0.6050028 0.5342806
vn 0 0 1
vn 0 0 1
vn 0 0 1
vn 0 0 1
vn 1 0 0
vn 1 0 0
vn 1 0 0
vn 1 0 0
vn -1 0 0
vn -1 0 0
vn -1 0 0
vn -1 0 0
vn 0 0 -1
vn 0 0 -1
vn 0 0 -1
vn 0 0 -1
vn 0 0 1
vn 0 0 1
vn 0 0 1
vn 0 0 1
vn 0.8098026 0 0.5867025
vn 0.8098026 0 0.5867025
vn 0.8098026 0 0.5867025
vn 0.8098026 0 0.5867025
vn 0 1 0
vn 0 1 0
vn 0 1 0
vn 0 1 0
vn 0 1 0
vn 0 1 0
vn 0 -1 0
vn 0 -1 0
vn 0 -1 0
vn 0 -1 0
vn 0 -1 0
vn 0 -1 0
vn 0 0 1
vn 0 0 1
vn 0 0 1
vn 0 0 1
vn 0 1 0
vn 0 1 0
vn 0 1 0
vn 0 1 0
vn 0 1 0
vn 0 1 0
vn 0 -1 0
vn 0 -1 0
vn 0 -1 0
vn 0 -1 0
vn 0 -1 0
vn 0 -1 0
vn -0.8098026 0 0.5867025
vn -0.8098026 0 0.5867025
vn -0.8098026 0 0.5867025
vn -0.8098026 0 0.5867025
vn -1 0 0
vn -1 0 0
vn -1 0 0
vn -1 0 0
vn 1 0 0
vn 1 0 0
vn 1 0 0
vn 1 0 0
g Cube.014_0
f 3/3/3 2/2/2 1/1/1
f 4/4/4 3/3/3 1/1/1
f 7/7/7 6/6/6 5/5/5
f 8/8/8 7/7/7 5/5/5
f 11/11/11 10/10/10 9/9/9
f 12/12/12 11/11/11 9/9/9
f 15/15/15 14/14/14 13/13/13
f 16/16/16 15/15/15 13/13/13
f 19/19/19 18/18/18 17/17/17
f 20/20/20 19/19/19 17/17/17
f 23/23/23 22/22/22 21/21/21
f 24/24/24 23/23/23 21/21/21
f 27/27/27 26/26/26 25/25/25
f 25/25/25 28/28/28 27/27/27
f 27/27/27 28/28/28 29/29/29
f 29/29/29 30/30/30 27/27/27
f 33/33/33 32/32/32 31/31/31
f 31/31/31 34/34/34 33/33/33
f 35/35/35 34/34/34 31/31/31
f 31/31/31 36/36/36 35/35/35
f 39/39/39 38/38/38 37/37/37
f 40/40/40 39/39/39 37/37/37
f 43/43/43 42/42/42 41/41/41
f 44/44/44 43/43/43 41/41/41
f 44/44/44 41/41/41 45/45/45
f 46/46/46 44/44/44 45/45/45
f 49/49/49 48/48/48 47/47/47
f 50/50/50 49/49/49 47/47/47
f 50/50/50 47/47/47 51/51/51
f 52/52/52 50/50/50 51/51/51
f 55/55/55 54/54/54 53/53/53
f 56/56/56 55/55/55 53/53/53
f 59/59/59 58/58/58 57/57/57
f 60/60/60 59/59/59 57/57/57
f 63/63/63 62/62/62 61/61/61
f 64/64/64 63/63/63 61/61/61
