g Cube.026
v 2.811434 -1.586449 0.2460552
v 2.811434 -1.586449 0.1225125
v 2.825417 -1.565521 0.1225125
v 2.825417 -1.565521 0.2460552
v 3.008477 -1.641347 -0.2460554
v 3.02847 1.540835 -0.2460554
v 3.008477 1.641347 -0.2460554
v 2.951542 -1.726557 -0.2460554
v 2.951542 1.726557 -0.2460554
v 2.866332 -1.783493 -0.2460554
v 2.866332 1.783493 -0.2460554
v 2.76582 -1.803486 -0.2460554
v 2.76582 1.803486 -0.2460554
v -2.76582 -1.803486 -0.2460554
v -2.76582 1.803486 -0.2460554
v -2.866332 -1.783493 -0.2460554
v -2.866332 1.783493 -0.2460554
v -2.951542 -1.726557 -0.2460554
v -2.951542 1.726557 -0.2460554
v -3.008477 -1.641347 -0.2460554
v -3.008477 1.641347 -0.2460554
v -3.02847 -1.540835 -0.2460554
v -3.02847 1.540835 -0.2460554
v -2.866332 -1.783493 -0.2460554
v -2.951542 -1.726557 -0.2460554
v -2.951542 -1.726557 0.2460552
v -2.866332 -1.783493 0.2460552
v -2.76582 -1.803486 -0.2460554
v -2.76582 -1.803486 0.2460552
v 2.76582 -1.803486 0.2460552
v 2.76582 -1.803486 -0.2460554
v 2.866332 -1.783493 -0.2460554
v 2.866332 -1.783493 0.2460552
v 2.951542 -1.726557 -0.2460554
v 2.951542 -1.726557 0.2460552
v 3.008477 -1.641347 -0.2460554
v 3.008477 -1.641347 0.2460552
v -2.951542 -1.726557 -0.2460554
v -3.008477 -1.641347 0.2460552
v -2.951542 -1.726557 0.2460552
v -3.008477 -1.641347 -0.2460554
v -3.02847 -1.540835 0.2460552
v -3.02847 -1.540835 -0.2460554
v -3.02847 1.540835 -0.2460554
v -3.02847 1.540835 0.2460552
v -3.008477 1.641347 0.2460552
v -3.008477 1.641347 -0.2460554
v -2.951542 1.726557 0.2460552
v -2.951542 1.726557 -0.2460554
v -2.866332 1.783493 0.2460552
v -2.951542 1.726557 0.2460552
v -2.951542 1.726557 -0.2460554
v -2.866332 1.783493 -0.2460554
v -2.76582 1.803486 0.2460552
v -2.76582 1.803486 -0.2460554
v 2.76582 1.803486 -0.2460554
v 2.76582 1.803486 0.2460552
v 2.866332 1.783493 0.2460552
v 2.866332 1.783493 -0.2460554
v 2.951542 1.726557 0.2460552
v 2.951542 1.726557 -0.2460554
v 3.008477 1.641347 0.2460552
v 3.008477 1.641347 -0.2460554
v 3.02847 1.540835 0.2460552
v 3.02847 1.540835 -0.2460554
v 3.024915 0.3324888 0.1090911
v 3.025777 -0.3344514 0.109074
v 3.02847 -1.540835 0.2460552
v 3.030304 0.3324812 -0.1090742
v 3.008477 -1.641347 -0.2460554
v 3.012033 -0.3262499 -0.1090743
v 3.008477 -1.641347 0.2460552
v 3.006654 -0.3262423 0.1095914
v -2.790506 1.600432 0.2460552
v -2.866332 1.783493 0.2460552
v -2.76582 1.803486 0.2460552
v -2.74668 1.60915 0.2460552
v 2.76582 1.803486 0.2460552
v 2.74668 1.60915 0.2460552
v 2.866332 1.783493 0.2460552
v 2.790506 1.600432 0.2460552
v 2.951542 1.726557 0.2460552
v 2.811434 1.586449 0.2460552
v 3.008477 1.641347 0.2460552
v 2.825417 1.565521 0.2460552
v 3.02847 1.540835 0.2460552
v 2.834134 1.521695 0.2460552
v 3.02847 -1.540835 0.2460552
v 2.834134 -1.521695 0.2460552
v 3.008477 -1.641347 0.2460552
v 2.825417 -1.565521 0.2460552
v 2.951542 -1.726557 0.2460552
v 2.811434 -1.586449 0.2460552
v 2.866332 -1.783493 0.2460552
v 2.790506 -1.600432 0.2460552
v -2.811434 1.586449 0.2460552
v -2.951542 1.726557 0.2460552
v -2.866332 1.783493 0.2460552
v -2.790506 1.600432 0.2460552
v -2.825417 1.565521 0.2460552
v -2.951542 1.726557 0.2460552
v -2.811434 1.586449 0.2460552
v -3.008477 1.641347 0.2460552
v -2.834134 1.521695 0.2460552
v -3.02847 1.540835 0.2460552
v -2.834134 -1.521695 0.2460552
v -3.02847 -1.540835 0.2460552
v -2.825417 -1.565521 0.2460552
v -3.008477 -1.641347 0.2460552
v -2.811434 -1.586449 0.2460552
v -2.951542 -1.726557 0.2460552
v -2.790506 -1.600432 0.2460552
v -2.866332 -1.783493 0.2460552
v -2.74668 -1.60915 0.2460552
v -2.76582 -1.803486 0.2460552
v 2.74668 -1.60915 0.2460552
v 2.76582 -1.803486 0.2460552
v 2.790506 -1.600432 0.2460552
v 2.866332 -1.783493 0.2460552
v 2.76582 -1.803486 0.2460552
v 2.74668 -1.60915 0.2460552
v 2.825417 1.565521 0.1225125
v 2.834134 1.521695 0.1225125
v 2.834134 -1.521695 0.1225125
v 2.825417 -1.565521 0.1225125
v 2.811434 1.586449 0.1225125
v 2.811434 -1.586449 0.1225125
v 2.790506 1.600432 0.1225125
v 2.790506 -1.600432 0.1225125
v 2.74668 1.60915 0.1225125
v 2.74668 -1.60915 0.1225125
v -2.74668 1.60915 0.1225125
v -2.74668 -1.60915 0.1225125
v -2.790506 1.600432 0.1225125
v -2.790506 -1.600432 0.1225125
v -2.811434 1.586449 0.1225125
v -2.811434 -1.586449 0.1225125
v -2.825417 1.565521 0.1225125
v -2.825417 -1.565521 0.1225125
v -2.834134 1.521695 0.1225125
v -2.834134 -1.521695 0.1225125
v -2.834134 -1.521695 0.2460552
v -2.834134 -1.521695 0.1225125
v -2.825417 -1.565521 0.1225125
v -2.825417 -1.565521 0.2460552
v 2.825417 -1.565521 0.2460552
v 2.825417 -1.565521 0.1225125
v 2.834134 -1.521695 0.1225125
v 2.834134 -1.521695 0.2460552
v -2.74668 1.60915 0.2460552
v -2.74668 1.60915 0.1225125
v -2.790506 1.600432 0.1225125
v -2.790506 1.600432 0.2460552
v 2.74668 1.60915 0.2460552
v -2.74668 1.60915 0.1225125
v -2.74668 1.60915 0.2460552
v 2.74668 1.60915 0.1225125
v 2.790506 1.600432 0.2460552
v 2.790506 1.600432 0.1225125
v -2.790506 1.600432 0.2460552
v -2.790506 1.600432 0.1225125
v -2.811434 1.586449 0.1225125
v -2.811434 1.586449 0.2460552
v 2.811434 1.586449 0.2460552
v 2.811434 1.586449 0.1225125
v 2.790506 1.600432 0.1225125
v 2.790506 1.600432 0.2460552
v -2.811434 1.586449 0.2460552
v -2.811434 1.586449 0.1225125
v -2.825417 1.565521 0.1225125
v -2.825417 1.565521 0.2460552
v 2.825417 1.565521 0.2460552
v 2.825417 1.565521 0.1225125
v 2.811434 1.586449 0.1225125
v 2.811434 1.586449 0.2460552
v -2.825417 1.565521 0.2460552
v -2.825417 1.565521 0.1225125
v -2.834134 1.521695 0.1225125
v -2.834134 1.521695 0.2460552
v -2.834134 -1.521695 0.1225125
v -2.834134 -1.521695 0.2460552
v -2.790506 -1.600432 0.2460552
v -2.790506 -1.600432 0.1225125
v -2.74668 -1.60915 0.1225125
v -2.74668 -1.60915 0.2460552
v 2.834134 1.521695 0.2460552
v 2.825417 1.565521 0.1225125
v 2.825417 1.565521 0.2460552
v 2.834134 1.521695 0.1225125
v 2.834134 -1.521695 0.2460552
v 2.834134 -1.521695 0.1225125
v -2.811434 -1.586449 0.2460552
v -2.811434 -1.586449 0.1225125
v -2.790506 -1.600432 0.1225125
v -2.790506 -1.600432 0.2460552
v -2.74668 -1.60915 0.2460552
v -2.74668 -1.60915 0.1225125
v 2.74668 -1.60915 0.1225125
v 2.74668 -1.60915 0.2460552
v 2.790506 -1.600432 0.1225125
v 2.790506 -1.600432 0.2460552
v 2.811434 -1.586449 0.1225125
v 2.811434 -1.586449 0.2460552
v -2.825417 -1.565521 0.2460552
v -2.825417 -1.565521 0.1225125
v -2.811434 -1.586449 0.1225125
v -2.811434 -1.586449 0.2460552
v 3.024915 0.3324888 0.1090911
v 5.735511 0.3260668 0.05576842
v 5.736373 -0.3408735 0.05575135
v 3.025777 -0.3344514 0.109074
v 3.02847 -1.540835 0.2460552
v 3.025777 -0.3344514 0.109074
v 3.006654 -0.3262423 0.1095914
v 3.008477 -1.641347 0.2460552
v 3.006654 -0.3262423 0.1095914
v 5.717249 -0.3326643 0.05626874
v 5.722628 -0.3326719 -0.162397
v 3.012033 -0.3262499 -0.1090743
v 3.030304 0.3324812 -0.1090742
v 5.7409 0.3260592 -0.1623969
v 5.735511 0.3260668 0.05576842
v 3.024915 0.3324888 0.1090911
v 3.012033 -0.3262499 -0.1090743
v 5.722628 -0.3326719 -0.162397
v 5.7409 0.3260592 -0.1623969
v 3.030304 0.3324812 -0.1090742
v 3.025777 -0.3344514 0.109074
v 5.736373 -0.3408735 0.05575135
v 5.717249 -0.3326643 0.05626874
v 3.006654 -0.3262423 0.1095914
vt 0.09185791 0.3491211
vt 0.09185791 0.3491211
vt 0.09197998 0.3491211
vt 0.09197998 0.3491211
vt 0.09552002 0.3344727
vt 0.09588623 0.3344727
vt 0.09594727 0.3344727
vt 0.09552002 0.3344727
vt 0.09594727 0.3344727
vt 0.09545898 0.3344727
vt 0.0960083 0.3344727
vt 0.09552002 0.3342285
vt 0.09594727 0.3342285
vt 0.09552002 0.3339844
vt 0.09594727 0.3339844
vt 0.09552002 0.3339844
vt 0.09594727 0.3339844
vt 0.09552002 0.3339844
vt 0.09594727 0.3339844
vt 0.09552002 0.3339844
vt 0.09594727 0.3339844
vt 0.09558105 0.3339844
vt 0.09588623 0.3339844
vt 0.08453369 0.3334961
vt 0.08453369 0.3334961
vt 0.08453369 0.3334961
vt 0.08453369 0.3334961
vt 0.08453369 0.3334961
vt 0.08453369 0.3334961
vt 0.08459473 0.3334961
vt 0.08459473 0.3334961
vt 0.08459473 0.3334961
vt 0.08459473 0.3334961
vt 0.08459473 0.3334961
vt 0.08459473 0.3334961
vt 0.08459473 0.3334961
vt 0.08459473 0.3334961
vt 0.08459473 0.3334961
vt 0.08459473 0.3334961
vt 0.08459473 0.3334961
vt 0.08459473 0.3334961
vt 0.08459473 0.3334961
vt 0.08459473 0.3334961
vt 0.08459473 0.3334961
vt 0.08459473 0.3334961
vt 0.08465576 0.3334961
vt 0.08465576 0.3334961
vt 0.08465576 0.3334961
vt 0.08465576 0.3334961
vt 0.08465576 0.3334961
vt 0.08465576 0.3334961
vt 0.08465576 0.3334961
vt 0.08465576 0.3334961
vt 0.08465576 0.3334961
vt 0.08465576 0.3334961
vt 0.08465576 0.3334961
vt 0.08465576 0.3334961
vt 0.08465576 0.3334961
vt 0.08465576 0.3334961
vt 0.08465576 0.3334961
vt 0.08465576 0.3334961
vt 0.08465576 0.3334961
vt 0.08465576 0.3334961
vt 0.08459473 0.3334961
vt 0.08459473 0.3334961
vt 0.08459473 0.3334961
vt 0.08459473 0.3334961
vt 0.08459473 0.3334961
vt 0.08459473 0.3334961
vt 0.08459473 0.3334961
vt 0.08459473 0.3334961
vt 0.08459473 0.3334961
vt 0.08459473 0.3334961
vt 0.08465576 0.3337402
vt 0.08465576 0.3337402
vt 0.08465576 0.3337402
vt 0.08465576 0.3337402
vt 0.08465576 0.3337402
vt 0.08465576 0.3337402
vt 0.08465576 0.3334961
vt 0.08465576 0.3337402
vt 0.08465576 0.3334961
vt 0.08465576 0.3337402
vt 0.08465576 0.3334961
vt 0.08465576 0.3334961
vt 0.08459473 0.3334961
vt 0.08459473 0.3334961
vt 0.08459473 0.3334961
vt 0.08459473 0.3334961
vt 0.08459473 0.3334961
vt 0.08459473 0.3334961
vt 0.08459473 0.3334961
vt 0.08459473 0.3337402
vt 0.08459473 0.3334961
vt 0.08459473 0.3337402
vt 0.09570313 0.3342285
vt 0.09570313 0.3342285
vt 0.09570313 0.3342285
vt 0.09570313 0.3342285
vt 0.08465576 0.3337402
vt 0.08465576 0.3337402
vt 0.08465576 0.3337402
vt 0.08465576 0.3337402
vt 0.08459473 0.3337402
vt 0.08459473 0.3337402
vt 0.08459473 0.3337402
vt 0.08459473 0.3337402
vt 0.08459473 0.3337402
vt 0.08459473 0.3337402
vt 0.08459473 0.3337402
vt 0.08459473 0.3337402
vt 0.08459473 0.3337402
vt 0.08459473 0.3337402
vt 0.08459473 0.3337402
vt 0.08459473 0.3337402
vt 0.08459473 0.3337402
vt 0.08459473 0.3337402
vt 0.09576416 0.3344727
vt 0.09576416 0.3344727
vt 0.09576416 0.3344727
vt 0.09576416 0.3344727
vt 0.2861328 0.3366699
vt 0.2861328 0.3366699
vt 0.2861328 0.3366699
vt 0.2861328 0.3366699
vt 0.2861328 0.3366699
vt 0.2861328 0.3366699
vt 0.2861328 0.3366699
vt 0.2861328 0.3366699
vt 0.2861328 0.3366699
vt 0.2861328 0.3366699
vt 0.2861328 0.3366699
vt 0.2861328 0.3366699
vt 0.2861328 0.3366699
vt 0.2861328 0.3366699
vt 0.2861328 0.3366699
vt 0.2861328 0.3366699
vt 0.2861328 0.3366699
vt 0.2861328 0.3366699
vt 0.2861328 0.3366699
vt 0.2861328 0.3366699
vt 0.09576416 0.3342285
vt 0.09576416 0.3342285
vt 0.09576416 0.3342285
vt 0.09576416 0.3342285
vt 0.09576416 0.3344727
vt 0.09576416 0.3344727
vt 0.09576416 0.3344727
vt 0.09576416 0.3344727
vt 0.08441162 0.3325195
vt 0.08441162 0.3325195
vt 0.08441162 0.3325195
vt 0.08441162 0.3325195
vt 0.08465576 0.3337402
vt 0.08465576 0.3337402
vt 0.08465576 0.3337402
vt 0.08465576 0.3337402
vt 0.08441162 0.3330078
vt 0.08441162 0.3330078
vt 0.09570313 0.3342285
vt 0.09570313 0.3342285
vt 0.09570313 0.3342285
vt 0.09570313 0.3342285
vt 0.09570313 0.3344727
vt 0.09570313 0.3344727
vt 0.09570313 0.3344727
vt 0.09570313 0.3344727
vt 0.0994873 0.3574219
vt 0.0994873 0.3574219
vt 0.09936523 0.3574219
vt 0.09936523 0.3574219
vt 0.0994873 0.3491211
vt 0.0994873 0.3491211
vt 0.09960938 0.3491211
vt 0.09960938 0.3491211
vt 0.08465576 0.3337402
vt 0.08465576 0.3337402
vt 0.08459473 0.3337402
vt 0.08459473 0.3337402
vt 0.08459473 0.3337402
vt 0.08459473 0.3337402
vt 0.08483887 0.3325195
vt 0.08483887 0.3325195
vt 0.08483887 0.3325195
vt 0.08483887 0.3325195
vt 0.08459473 0.3334961
vt 0.08465576 0.3334961
vt 0.08465576 0.3334961
vt 0.08459473 0.3334961
vt 0.08459473 0.3334961
vt 0.08459473 0.3334961
vt 0.09576416 0.3342285
vt 0.09576416 0.3342285
vt 0.09576416 0.3342285
vt 0.09576416 0.3342285
vt 0.08459473 0.3337402
vt 0.08459473 0.3337402
vt 0.08483887 0.3330078
vt 0.08483887 0.3330078
vt 0.08483887 0.3330078
vt 0.08483887 0.3330078
vt 0.08459473 0.3337402
vt 0.08459473 0.3337402
vt 0.08459473 0.3337402
vt 0.08459473 0.3337402
vt 0.08459473 0.3337402
vt 0.08459473 0.3337402
vt 0.2095947 0.3178711
vt 0.2095947 0.3178711
vt 0.2095947 0.3178711
vt 0.2095947 0.3178711
vt 0.08459473 0.3334961
vt 0.08459473 0.3334961
vt 0.08459473 0.3334961
vt 0.08459473 0.3334961
vt 0.2095947 0.3178711
vt 0.2095947 0.3178711
vt 0.2095947 0.3178711
vt 0.2095947 0.3178711
vt 0.2095947 0.3178711
vt 0.2095947 0.3178711
vt 0.2095947 0.3178711
vt 0.2095947 0.3178711
vt 0.2095947 0.3178711
vt 0.2095947 0.3178711
vt 0.2095947 0.3178711
vt 0.2095947 0.3178711
vt 0.2095947 0.3178711
vt 0.2095947 0.3178711
vt 0.2095947 0.3178711
vt 0.2095947 0.3178711
vn -0.7070313 0.7070313 0
vn -0.7070313 0.7070313 0
vn -0.9238281 0.3825684 0
vn -0.9238281 0.3825684 0
vn 0 0 -1
vn 0 0 -1
vn 0 0 -1
vn 0 0 -1
vn 0 0 -1
vn 0 0 -1
vn 0 0 -1
vn 0 0 -1
vn 0 0 -1
vn 0 0 -1
vn 0 0 -1
vn 0 0 -1
vn 0 0 -1
vn 0 0 -1
vn 0 0 -1
vn 0 0 -1
vn 0 0 -1
vn 0 0 -1
vn 0 0 -1
vn -0.3825684 -0.9238281 0
vn -0.7070313 -0.7070313 0
vn -0.7070313 -0.7070313 0
vn -0.3825684 -0.9238281 0
vn -0.09802246 -0.9951172 0
vn -0.09802246 -0.9951172 0
vn 0.09802246 -0.9951172 0
vn 0.09802246 -0.9951172 0
vn 0.3825684 -0.9238281 0
vn 0.3825684 -0.9238281 0
vn 0.7070313 -0.7070313 0
vn 0.7070313 -0.7070313 0
vn 0.831543 -0.5556641 0
vn 0.831543 -0.5556641 0
vn -0.7070313 -0.7070313 0
vn -0.9238281 -0.3825684 0
vn -0.7070313 -0.7070313 0
vn -0.9238281 -0.3825684 0
vn -0.9951172 -0.09802246 0
vn -0.9951172 -0.09802246 0
vn -0.9951172 0.09802246 0
vn -0.9951172 0.09802246 0
vn -0.9238281 0.3825684 0
vn -0.9238281 0.3825684 0
vn -0.7070313 0.7070313 0
vn -0.7070313 0.7070313 0
vn -0.3825684 0.9238281 0
vn -0.7070313 0.7070313 0
vn -0.7070313 0.7070313 0
vn -0.3825684 0.9238281 0
vn -0.09802246 0.9951172 0
vn -0.09802246 0.9951172 0
vn 0.09802246 0.9951172 0
vn 0.09802246 0.9951172 0
vn 0.3825684 0.9238281 0
vn 0.3825684 0.9238281 0
vn 0.7070313 0.7070313 0
vn 0.7070313 0.7070313 0
vn 0.9238281 0.3825684 0
vn 0.9238281 0.3825684 0
vn 0.9951172 0.09771729 0.002714157
vn 0.9951172 0.09735107 0.002965927
vn 1 -0.0001066327 -0.01194763
vn 0.9995117 0.0002300739 -0.02279663
vn 0.9995117 0.0002300739 -0.02279663
vn 1 -0.006652832 -0.00743103
vn 1 -0.001275063 0.006023407
vn 1 -0.006652832 -0.007484436
vn 1 -0.0006599426 0.007568359
vn 1 -0.0006599426 0.007568359
vn 0 0 1
vn 0 0 1
vn 0 0 1
vn 0 0 1
vn 0 0 1
vn 0 0 1
vn 0 0 1
vn 0 0 1
vn 0 0 1
vn 0 0 1
vn 0 0 1
vn 0 0 1
vn 0 0 1
vn 0 0 1
vn 0 0 1
vn 0 0 1
vn 0 0 1
vn 0 0 1
vn 0 0 1
vn 0 0 1
vn 0 0 1
vn 0 0 1
vn 0 0 1
vn 0 0 1
vn 0 0 1
vn 0 0 1
vn 0 0 1
vn 0 0 1
vn 0 0 1
vn 0 0 1
vn 0 0 1
vn 0 0 1
vn 0 0 1
vn 0 0 1
vn 0 0 1
vn 0 0 1
vn 0 0 1
vn 0 0 1
vn 0 0 1
vn 0 0 1
vn 0 0 1
vn 0 0 1
vn 0 0 1
vn 0 0 1
vn 0 0 1
vn 0 0 1
vn 0 0 1
vn 0 0 1
vn 0 0 1
vn 0 0 1
vn 0 0 1
vn 0 0 1
vn 0 0 1
vn 0 0 1
vn 0 0 1
vn 0 0 1
vn 0 0 1
vn 0 0 1
vn 0 0 1
vn 0 0 1
vn 0 0 1
vn 0 0 1
vn 0 0 1
vn 0 0 1
vn 0 0 1
vn 0 0 1
vn 0 0 1
vn 0 0 1
vn 0.9951172 0.09802246 0
vn 0.9951172 0.09802246 0
vn 0.9238281 0.3825684 0
vn 0.9238281 0.3825684 0
vn -0.9238281 0.3825684 0
vn -0.9238281 0.3825684 0
vn -0.9951172 0.09802246 0
vn -0.9951172 0.09802246 0
vn 0.09802246 -0.9951172 0
vn 0.09802246 -0.9951172 0
vn 0.3825684 -0.9238281 0
vn 0.3825684 -0.9238281 0
vn -0.09802246 -0.9951172 0
vn 0.09802246 -0.9951172 0
vn 0.09802246 -0.9951172 0
vn -0.09802246 -0.9951172 0
vn -0.3825684 -0.9238281 0
vn -0.3825684 -0.9238281 0
vn 0.3825684 -0.9238281 0
vn 0.3825684 -0.9238281 0
vn 0.7070313 -0.7070313 0
vn 0.7070313 -0.7070313 0
vn -0.7070313 -0.7070313 0
vn -0.7070313 -0.7070313 0
vn -0.3825684 -0.9238281 0
vn -0.3825684 -0.9238281 0
vn 0.7070313 -0.7070313 0
vn 0.7070313 -0.7070313 0
vn 0.9238281 -0.3825684 0
vn 0.9238281 -0.3825684 0
vn -0.9238281 -0.3825684 0
vn -0.9238281 -0.3825684 0
vn -0.7070313 -0.7070313 0
vn -0.7070313 -0.7070313 0
vn 0.9238281 -0.3825684 0
vn 0.9238281 -0.3825684 0
vn 0.9951172 -0.09802246 0
vn 0.9951172 -0.09802246 0
vn 0.9951172 0.09802246 0
vn 0.9951172 0.09802246 0
vn 0.3825684 0.9238281 0
vn 0.3825684 0.9238281 0
vn 0.09802246 0.9951172 0
vn 0.09802246 0.9951172 0
vn -0.9951172 -0.09802246 0
vn -0.9238281 -0.3825684 0
vn -0.9238281 -0.3825684 0
vn -0.9951172 -0.09802246 0
vn -0.9951172 0.09802246 0
vn -0.9951172 0.09802246 0
vn 0.7070313 0.7070313 0
vn 0.7070313 0.7070313 0
vn 0.3825684 0.9238281 0
vn 0.3825684 0.9238281 0
vn 0.09802246 0.9951172 0
vn 0.09802246 0.9951172 0
vn -0.09802246 0.9951172 0
vn -0.09802246 0.9951172 0
vn -0.3825684 0.9238281 0
vn -0.3825684 0.9238281 0
vn -0.7070313 0.7070313 0
vn -0.7070313 0.7070313 0
vn 0.9238281 0.3825684 0
vn 0.9238281 0.3825684 0
vn 0.7070313 0.7070313 0
vn 0.7070313 0.7070313 0
vn 0.01966858 0 1
vn 0.01966858 0 1
vn 0.01966858 0 1
vn 0.01966858 0 1
vn 0.2336426 -0.1044312 -0.9667969
vn 0.08728027 -0.03399658 -0.9956055
vn 0.1700439 -0.0737915 -0.9829102
vn 0.2336426 -0.1044312 -0.9667969
vn -0.002368927 -1 -2.342463E-05
vn -0.002368927 -1 -2.342463E-05
vn -0.002368927 -1 -2.342463E-05
vn -0.002368927 -1 -2.342463E-05
vn 0.002368927 1 2.354383E-05
vn 0.002368927 1 2.354383E-05
vn 0.002368927 1 2.354383E-05
vn 0.002368927 1 2.354383E-05
vn -0.01966858 0.0005455017 -1
vn -0.01966858 0.0005455017 -1
vn -0.01966858 0.0005455017 -1
vn -0.01966858 0.0005455017 -1
vn 0.08728027 -0.03399658 -0.9956055
vn -0.0196228 0.01728821 -0.9995117
vn -0.0196228 0.01728821 -0.9995117
vn 0.1700439 -0.0737915 -0.9829102
g Cube.026_0
f 3/3/3 2/2/2 1/1/1
f 4/4/4 3/3/3 1/1/1
f 7/7/7 6/6/6 5/5/5
f 5/5/5 8/8/8 7/7/7
f 8/8/8 9/9/9 7/7/7
f 8/8/8 10/10/10 9/9/9
f 10/10/10 11/11/11 9/9/9
f 10/10/10 12/12/12 11/11/11
f 12/12/12 13/13/13 11/11/11
f 12/12/12 14/14/14 13/13/13
f 14/14/14 15/15/15 13/13/13
f 14/14/14 16/16/16 15/15/15
f 16/16/16 17/17/17 15/15/15
f 16/16/16 18/18/18 17/17/17
f 18/18/18 19/19/19 17/17/17
f 18/18/18 20/20/20 19/19/19
f 20/20/20 21/21/21 19/19/19
f 20/20/20 22/22/22 21/21/21
f 22/22/22 23/23/23 21/21/21
f 26/26/26 25/25/25 24/24/24
f 27/27/27 26/26/26 24/24/24
f 27/27/27 24/24/24 28/28/28
f 29/29/29 27/27/27 28/28/28
f 30/30/30 29/29/29 28/28/28
f 31/31/31 30/30/30 28/28/28
f 31/31/31 32/32/32 30/30/30
f 32/32/32 33/33/33 30/30/30
f 32/32/32 34/34/34 33/33/33
f 34/34/34 35/35/35 33/33/33
f 34/34/34 36/36/36 35/35/35
f 36/36/36 37/37/37 35/35/35
f 40/40/40 39/39/39 38/38/38
f 39/39/39 41/41/41 38/38/38
f 39/39/39 42/42/42 41/41/41
f 42/42/42 43/43/43 41/41/41
f 44/44/44 43/43/43 42/42/42
f 45/45/45 44/44/44 42/42/42
f 44/44/44 45/45/45 46/46/46
f 47/47/47 44/44/44 46/46/46
f 47/47/47 46/46/46 48/48/48
f 49/49/49 47/47/47 48/48/48
f 52/52/52 51/51/51 50/50/50
f 53/53/53 52/52/52 50/50/50
f 53/53/53 50/50/50 54/54/54
f 55/55/55 53/53/53 54/54/54
f 55/55/55 54/54/54 56/56/56
f 54/54/54 57/57/57 56/56/56
f 57/57/57 58/58/58 56/56/56
f 58/58/58 59/59/59 56/56/56
f 58/58/58 60/60/60 59/59/59
f 60/60/60 61/61/61 59/59/59
f 60/60/60 62/62/62 61/61/61
f 62/62/62 63/63/63 61/61/61
f 62/62/62 64/64/64 63/63/63
f 64/64/64 65/65/65 63/63/63
f 64/64/64 66/66/66 65/65/65
f 67/67/67 66/66/66 64/64/64
f 68/68/68 67/67/67 64/64/64
f 66/66/66 69/69/69 65/65/65
f 65/65/65 69/69/69 70/70/70
f 69/69/69 71/71/71 70/70/70
f 70/70/70 71/71/71 72/72/72
f 71/71/71 73/73/73 72/72/72
f 76/76/76 75/75/75 74/74/74
f 77/77/77 76/76/76 74/74/74
f 78/78/78 76/76/76 77/77/77
f 79/79/79 78/78/78 77/77/77
f 80/80/80 78/78/78 79/79/79
f 81/81/81 80/80/80 79/79/79
f 82/82/82 80/80/80 81/81/81
f 83/83/83 82/82/82 81/81/81
f 84/84/84 82/82/82 83/83/83
f 85/85/85 84/84/84 83/83/83
f 86/86/86 84/84/84 85/85/85
f 87/87/87 86/86/86 85/85/85
f 88/88/88 86/86/86 87/87/87
f 89/89/89 88/88/88 87/87/87
f 90/90/90 88/88/88 89/89/89
f 91/91/91 90/90/90 89/89/89
f 92/92/92 90/90/90 91/91/91
f 93/93/93 92/92/92 91/91/91
f 94/94/94 92/92/92 93/93/93
f 95/95/95 94/94/94 93/93/93
f 98/98/98 97/97/97 96/96/96
f 99/99/99 98/98/98 96/96/96
f 102/102/102 101/101/101 100/100/100
f 101/101/101 103/103/103 100/100/100
f 100/100/100 103/103/103 104/104/104
f 103/103/103 105/105/105 104/104/104
f 104/104/104 105/105/105 106/106/106
f 105/105/105 107/107/107 106/106/106
f 106/106/106 107/107/107 108/108/108
f 107/107/107 109/109/109 108/108/108
f 108/108/108 109/109/109 110/110/110
f 109/109/109 111/111/111 110/110/110
f 110/110/110 111/111/111 112/112/112
f 111/111/111 113/113/113 112/112/112
f 112/112/112 113/113/113 114/114/114
f 113/113/113 115/115/115 114/114/114
f 114/114/114 115/115/115 116/116/116
f 115/115/115 117/117/117 116/116/116
f 120/120/120 119/119/119 118/118/118
f 121/121/121 120/120/120 118/118/118
f 124/124/124 123/123/123 122/122/122
f 122/122/122 125/125/125 124/124/124
f 122/122/122 126/126/126 125/125/125
f 126/126/126 127/127/127 125/125/125
f 126/126/126 128/128/128 127/127/127
f 128/128/128 129/129/129 127/127/127
f 128/128/128 130/130/130 129/129/129
f 130/130/130 131/131/131 129/129/129
f 130/130/130 132/132/132 131/131/131
f 132/132/132 133/133/133 131/131/131
f 132/132/132 134/134/134 133/133/133
f 134/134/134 135/135/135 133/133/133
f 134/134/134 136/136/136 135/135/135
f 136/136/136 137/137/137 135/135/135
f 136/136/136 138/138/138 137/137/137
f 138/138/138 139/139/139 137/137/137
f 138/138/138 140/140/140 139/139/139
f 140/140/140 141/141/141 139/139/139
f 144/144/144 143/143/143 142/142/142
f 145/145/145 144/144/144 142/142/142
f 148/148/148 147/147/147 146/146/146
f 149/149/149 148/148/148 146/146/146
f 152/152/152 151/151/151 150/150/150
f 153/153/153 152/152/152 150/150/150
f 156/156/156 155/155/155 154/154/154
f 155/155/155 157/157/157 154/154/154
f 154/154/154 157/157/157 158/158/158
f 157/157/157 159/159/159 158/158/158
f 162/162/162 161/161/161 160/160/160
f 163/163/163 162/162/162 160/160/160
f 166/166/166 165/165/165 164/164/164
f 167/167/167 166/166/166 164/164/164
f 170/170/170 169/169/169 168/168/168
f 171/171/171 170/170/170 168/168/168
f 174/174/174 173/173/173 172/172/172
f 175/175/175 174/174/174 172/172/172
f 178/178/178 177/177/177 176/176/176
f 179/179/179 178/178/178 176/176/176
f 180/180/180 178/178/178 179/179/179
f 181/181/181 180/180/180 179/179/179
f 184/184/184 183/183/183 182/182/182
f 185/185/185 184/184/184 182/182/182
f 188/188/188 187/187/187 186/186/186
f 187/187/187 189/189/189 186/186/186
f 186/186/186 189/189/189 190/190/190
f 189/189/189 191/191/191 190/190/190
f 194/194/194 193/193/193 192/192/192
f 195/195/195 194/194/194 192/192/192
f 198/198/198 197/197/197 196/196/196
f 199/199/199 198/198/198 196/196/196
f 200/200/200 198/198/198 199/199/199
f 201/201/201 200/200/200 199/199/199
f 202/202/202 200/200/200 201/201/201
f 203/203/203 202/202/202 201/201/201
f 206/206/206 205/205/205 204/204/204
f 207/207/207 206/206/206 204/204/204
f 210/210/210 209/209/209 208/208/208
f 211/211/211 210/210/210 208/208/208
f 214/214/214 213/213/213 212/212/212
f 215/215/215 214/214/214 212/212/212
f 218/218/218 217/217/217 216/216/216
f 219/219/219 218/218/218 216/216/216
f 222/222/222 221/221/221 220/220/220
f 223/223/223 222/222/222 220/220/220
f 226/226/226 225/225/225 224/224/224
f 227/227/227 226/226/226 224/224/224
f 230/230/230 229/229/229 228/228/228
f 231/231/231 230/230/230 228/228/228
