g Cube.007
v -1.639651 -0.1825902 1.639651
v -1.639651 0.1825904 1.639651
v -1.639651 0.1825902 -1.639651
v -1.639651 -0.1825904 -1.639651
v -1.639651 -0.1825904 -1.639651
v -1.639651 0.1825902 -1.639651
v 1.639651 0.1825902 -1.639651
v 1.639651 -0.1825904 -1.639651
v 1.639651 -0.1825904 -1.639651
v 1.639651 0.1825902 -1.639651
v 1.639651 0.1825904 1.639651
v 1.639651 -0.1825902 1.639651
v 1.639651 -0.1825902 1.639651
v 1.639651 0.1825904 1.639651
v -1.639651 0.1825904 1.639651
v -1.639651 -0.1825902 1.639651
v -1.639651 -0.1825904 -1.639651
v 1.639651 -0.1825904 -1.639651
v 1.639651 -0.1825902 1.639651
v -1.639651 -0.1825902 1.639651
v -1.670798 -0.1860587 1.670798
v -1.670798 -0.1860589 -1.670798
v -1.677798 0.1825902 -1.677798
v -1.677798 0.1825904 1.677798
v -1.670798 -0.1860589 -1.670798
v 1.670798 -0.1860589 -1.670798
v 1.677798 0.1825902 -1.677798
v -1.677798 0.1825902 -1.677798
v 1.670798 -0.1860589 -1.670798
v 1.670798 -0.1860587 1.670798
v 1.677798 0.1825904 1.677798
v 1.677798 0.1825902 -1.677798
v 1.670798 -0.1860587 1.670798
v -1.670798 -0.1860587 1.670798
v -1.677798 0.1825904 1.677798
v 1.677798 0.1825904 1.677798
v -1.670798 -0.1860589 -1.670798
v -1.670798 -0.1860587 1.670798
v 1.670798 -0.1860587 1.670798
v 1.670798 -0.1860589 -1.670798
v -1.639651 0.1825904 1.639651
v -1.677798 0.1825904 1.677798
v -1.677798 0.1825902 -1.677798
v -1.639651 0.1825902 -1.639651
v 1.677798 0.1825902 -1.677798
v 1.639651 0.1825902 -1.639651
v 1.677798 0.1825904 1.677798
v 1.639651 0.1825904 1.639651
v -1.677798 0.1825904 1.677798
v -1.639651 0.1825904 1.639651
vt 0.5966797 0.5517975
vt 0.6059371 0.5517975
vt 0.6059371 0.561055
vt 0.5966797 0.561055
vt 0.5966797 0.561055
vt 0.6059371 0.561055
vt 0.6059371 0.5703125
vt 0.5966797 0.5703125
vt 0.5966797 0.5703125
vt 0.6059371 0.5703125
vt 0.6059371 0.57957
vt 0.5966797 0.57957
vt 0.5966797 0.57957
vt 0.6059371 0.57957
vt 0.6059371 0.5888274
vt 0.5966797 0.5888274
vt 0.5874222 0.5703125
vt 0.5966797 0.5703125
vt 0.5966797 0.57957
vt 0.5874222 0.57957
vt 0.5966797 0.5517975
vt 0.5966797 0.561055
vt 0.6059371 0.561055
vt 0.6059371 0.5517975
vt 0.5966797 0.561055
vt 0.5966797 0.5703125
vt 0.6059371 0.5703125
vt 0.6059371 0.561055
vt 0.5966797 0.5703125
vt 0.5966797 0.57957
vt 0.6059371 0.57957
vt 0.6059371 0.5703125
vt 0.5966797 0.57957
vt 0.5966797 0.5888274
vt 0.6059371 0.5888274
vt 0.6059371 0.57957
vt 0.5874222 0.5703125
vt 0.5874222 0.57957
vt 0.5966797 0.57957
vt 0.5966797 0.5703125
vt 0.6059371 0.5517975
vt 0.6059371 0.5517975
vt 0.6059371 0.561055
vt 0.6059371 0.561055
vt 0.6059371 0.5703125
vt 0.6059371 0.5703125
vt 0.6059371 0.57957
vt 0.6059371 0.57957
vt 0.6059371 0.5888274
vt 0.6059371 0.5888274
vn 1 0 0
vn 1 0 0
vn 1 0 0
vn 1 0 0
vn 0 0 1
vn 0 0 1
vn 0 0 1
vn 0 0 1
vn -1 0 0
vn -1 0 0
vn -1 0 0
vn -1 0 0
vn 0 0 -1
vn 0 0 -1
vn 0 0 -1
vn 0 0 -1
vn 0 1 0
vn 0 1 0
vn 0 1 0
vn 0 1 0
vn -0.9998198 -0.01898515 0
vn -0.9998198 -0.01898515 0
vn -0.9998198 -0.01898515 0
vn -0.9998198 -0.01898515 0
vn 0 -0.01898539 -0.9998198
vn 0 -0.01898539 -0.9998198
vn 0 -0.01898539 -0.9998198
vn 0 -0.01898539 -0.9998198
vn 0.9998198 -0.01898515 0
vn 0.9998198 -0.01898515 0
vn 0.9998198 -0.01898515 0
vn 0.9998198 -0.01898515 0
vn 0 -0.01898539 0.9998198
vn 0 -0.01898539 0.9998198
vn 0 -0.01898539 0.9998198
vn 0 -0.01898539 0.9998198
vn 0 -1 0
vn 0 -1 0
vn 0 -1 0
vn 0 -1 0
vn 0 1 0
vn 0 1 0
vn 0 1 0
vn 0 1 0
vn 0 1 0
vn 0 1 0
vn 0 1 0
vn 0 1 0
vn 0 1 0
vn 0 1 0
g Cube.007_0
f 3/3/3 2/2/2 1/1/1
f 4/4/4 3/3/3 1/1/1
f 7/7/7 6/6/6 5/5/5
f 8/8/8 7/7/7 5/5/5
f 11/11/11 10/10/10 9/9/9
f 12/12/12 11/11/11 9/9/9
f 15/15/15 14/14/14 13/13/13
f 16/16/16 15/15/15 13/13/13
f 19/19/19 18/18/18 17/17/17
f 20/20/20 19/19/19 17/17/17
f 23/23/23 22/22/22 21/21/21
f 24/24/24 23/23/23 21/21/21
f 27/27/27 26/26/26 25/25/25
f 28/28/28 27/27/27 25/25/25
f 31/31/31 30/30/30 29/29/29
f 32/32/32 31/31/31 29/29/29
f 35/35/35 34/34/34 33/33/33
f 36/36/36 35/35/35 33/33/33
f 39/39/39 38/38/38 37/37/37
f 40/40/40 39/39/39 37/37/37
f 43/43/43 42/42/42 41/41/41
f 44/44/44 43/43/43 41/41/41
f 45/45/45 43/43/43 44/44/44
f 46/46/46 45/45/45 44/44/44
f 47/47/47 45/45/45 46/46/46
f 48/48/48 47/47/47 46/46/46
f 49/49/49 47/47/47 48/48/48
f 50/50/50 49/49/49 48/48/48
