g Cube.017
v -2.883409 8.384445 -0.5579056
v -2.883409 -0.007411932 0.5629534
v -2.883409 -0.007411981 -0.5579053
v -2.883409 8.384445 0.562953
v -2.843842 8.591189 0.562953
v -2.843842 8.591189 -0.5579056
v -2.729014 8.777696 0.562953
v -2.729014 8.777696 -0.5579056
v -2.550166 8.925708 0.5629529
v -2.550166 8.925708 -0.5579057
v -2.324804 9.020737 0.5629529
v -2.324804 9.020737 -0.5579057
v -2.074988 9.053482 0.5629529
v -2.074988 9.053482 -0.5579057
v 2.068802 9.053482 -0.5579057
v 2.068802 9.053482 0.5629529
v 2.318618 9.020737 0.5629529
v 2.318618 9.020737 -0.5579057
v 2.54398 8.925708 0.5629529
v 2.54398 8.925708 -0.5579057
v 2.722828 8.777696 0.562953
v 2.722828 8.777696 -0.5579056
v 2.837656 8.591189 0.562953
v 2.837656 8.591189 -0.5579056
v 2.877223 8.384445 0.562953
v 2.877223 8.384445 -0.5579056
v 2.877223 -0.007411981 -0.5579053
v 2.877223 -0.007411932 0.5629534
v 2.38891 -0.007411981 -0.5579053
v 2.877223 -0.007411981 -0.5579053
v 2.877223 8.384445 -0.5579056
v 2.38891 8.35264 -0.5579056
v 2.837656 8.591189 -0.5579056
v 2.367454 8.464752 -0.5579056
v 2.722828 8.777696 -0.5579056
v 2.32285 8.537199 -0.5579056
v 2.54398 8.925708 -0.5579057
v 2.253379 8.594692 -0.5579056
v 2.318618 9.020737 -0.5579057
v 2.16584 8.631605 -0.5579056
v 2.068802 9.053482 -0.5579057
v 2.030371 8.649363 -0.5579056
v -2.074988 9.053482 -0.5579057
v -2.036556 8.649363 -0.5579056
v -2.324804 9.020737 -0.5579057
v -2.172025 8.631605 -0.5579056
v -2.550166 8.925708 -0.5579057
v -2.259565 8.594692 -0.5579056
v -2.729014 8.777696 -0.5579056
v -2.329036 8.537199 -0.5579056
v -2.843842 8.591189 -0.5579056
v -2.373639 8.464752 -0.5579056
v -2.883409 8.384445 -0.5579056
v -2.395096 8.35264 -0.5579056
v -2.883409 -0.007411981 -0.5579053
v -2.395096 -0.007411981 -0.5579053
v 2.38891 8.35264 0.562953
v 2.877223 -0.007411932 0.5629534
v 2.38891 -0.007411932 0.5629534
v 2.877223 8.384445 0.562953
v 2.367454 8.464752 0.562953
v 2.837656 8.591189 0.562953
v 2.32285 8.537199 0.562953
v 2.722828 8.777696 0.562953
v 2.253379 8.594692 0.562953
v 2.54398 8.925708 0.5629529
v 2.16584 8.631605 0.562953
v 2.318618 9.020737 0.5629529
v 2.030371 8.649363 0.562953
v 2.068802 9.053482 0.5629529
v -2.036556 8.649363 0.562953
v -2.074988 9.053482 0.5629529
v -2.172025 8.631605 0.562953
v -2.324804 9.020737 0.5629529
v -2.259565 8.594692 0.562953
v -2.550166 8.925708 0.5629529
v -2.329036 8.537199 0.562953
v -2.729014 8.777696 0.562953
v -2.37364 8.464752 0.562953
v -2.843842 8.591189 0.562953
v -2.395096 8.35264 0.562953
v -2.883409 8.384445 0.562953
v -2.395096 -0.007411932 0.5629534
v -2.883409 -0.007411932 0.5629534
v -2.395096 -0.007411957 0.002524019
v -2.395096 -0.007411932 0.5629534
v -2.395096 8.35264 0.562953
v -2.395096 8.35264 0.002523653
v -2.395096 -0.007411981 -0.5579053
v -2.395096 8.35264 -0.5579056
v -2.37364 8.464752 0.562953
v -2.37364 8.464752 0.002523648
v -2.329036 8.537199 0.562953
v -2.329036 8.537199 0.002523645
v -2.395096 8.35264 -0.5579056
v -2.37364 8.464752 0.002523648
v -2.373639 8.464752 -0.5579056
v -2.329036 8.537199 0.562953
v -2.259565 8.594692 0.562953
v -2.259565 8.594692 0.002523642
v -2.172025 8.631605 0.562953
v -2.172025 8.631605 0.002523641
v -2.036556 8.649363 0.562953
v -2.036556 8.649363 0.00252364
v -2.37364 8.464752 0.002523648
v -2.329036 8.537199 0.002523645
v -2.329036 8.537199 -0.5579056
v -2.259565 8.594692 -0.5579056
v -2.259565 8.594692 -0.5579056
v -2.172025 8.631605 0.002523641
v -2.172025 8.631605 -0.5579056
v -2.036556 8.649363 0.00252364
v 2.030371 8.649363 0.562953
v 2.030371 8.649363 0.00252364
v -2.172025 8.631605 -0.5579056
v -2.172025 8.631605 0.002523641
v -2.036556 8.649363 -0.5579056
v 2.030371 8.649363 0.00252364
v 2.16584 8.631605 0.562953
v 2.16584 8.631605 0.002523641
v 2.030371 8.649363 -0.5579056
v 2.16584 8.631605 -0.5579056
v 2.253379 8.594692 0.002523642
v 2.253379 8.594692 -0.5579056
v 2.32285 8.537199 0.002523645
v 2.32285 8.537199 -0.5579056
v -2.036556 8.649363 -0.5579056
v -2.036556 8.649363 0.00252364
v 2.030371 8.649363 -0.5579056
v 2.32285 8.537199 -0.5579056
v 2.367454 8.464752 0.002523648
v 2.367454 8.464752 -0.5579056
v 2.367454 8.464752 0.562953
v 2.32285 8.537199 0.562953
v 2.38891 8.35264 0.562953
v 2.38891 8.35264 0.002523653
v 2.253379 8.594692 0.002523642
v 2.32285 8.537199 0.002523645
v 2.253379 8.594692 0.562953
v 2.16584 8.631605 0.002523641
v 2.16584 8.631605 0.562953
v 2.38891 8.35264 0.002523653
v 2.38891 8.35264 0.562953
v 2.38891 -0.007411932 0.5629534
v 2.38891 -0.007411957 0.002524019
v 2.38891 8.35264 -0.5579056
v 2.38891 -0.007411981 -0.5579053
v 2.367454 8.464752 -0.5579056
v 2.367454 8.464752 0.002523648
v -2.395096 -0.007411957 0.002524019
v -2.395096 -0.007411981 -0.5579053
v -2.883409 -0.007411981 -0.5579053
v -2.883409 -0.007411932 0.5629534
v -2.395096 -0.007411932 0.5629534
v 2.877223 -0.007411932 0.5629534
v 2.877223 -0.007411981 -0.5579053
v 2.38891 -0.007411981 -0.5579053
v 2.38891 -0.007411957 0.002524019
v 2.38891 -0.007411932 0.5629534
vt 0.106039 0.3476063
vt 0.06995077 0.3476063
vt 0.06995077 0.3476063
vt 0.106039 0.3476063
vt 0.1069114 0.3475615
vt 0.1069114 0.3475615
vt 0.1076985 0.3474316
vt 0.1076985 0.3474316
vt 0.1086825 0.3464748
vt 0.1086825 0.3464748
vt 0.1088162 0.3457096
vt 0.1088162 0.3457096
vt 0.1088622 0.3448613
vt 0.1088622 0.3448613
vt 0.1088622 0.3307912
vt 0.1088622 0.3307912
vt 0.1088162 0.3299429
vt 0.1088162 0.3299429
vt 0.1086825 0.3291777
vt 0.1086825 0.3291777
vt 0.1076985 0.328221
vt 0.1076985 0.328221
vt 0.1069114 0.328091
vt 0.1069114 0.328091
vt 0.106039 0.3280462
vt 0.106039 0.3280462
vt 0.06995077 0.3280462
vt 0.06995077 0.3280462
vt 0.06995077 0.3297042
vt 0.06995077 0.3280462
vt 0.106039 0.3280462
vt 0.1059379 0.3296561
vt 0.1069114 0.328091
vt 0.1064247 0.3297142
vt 0.1076985 0.328221
vt 0.1067434 0.3298631
vt 0.1086825 0.3291777
vt 0.1069946 0.3301073
vt 0.1088162 0.3299429
vt 0.1071476 0.3304172
vt 0.1088622 0.3307912
vt 0.1072076 0.3308907
vt 0.1088622 0.3448613
vt 0.1072076 0.3447619
vt 0.1088162 0.3457096
vt 0.1071476 0.3452353
vt 0.1086825 0.3464748
vt 0.1069946 0.3455453
vt 0.1076985 0.3474316
vt 0.1067435 0.3457894
vt 0.1069114 0.3475615
vt 0.1064248 0.3459382
vt 0.106039 0.3476063
vt 0.1059379 0.3459964
vt 0.06995077 0.3476063
vt 0.06995077 0.3459482
vt 0.1059379 0.329656
vt 0.06995077 0.3280462
vt 0.06995077 0.3297043
vt 0.106039 0.3280462
vt 0.1064248 0.3297143
vt 0.1069114 0.328091
vt 0.1067434 0.329863
vt 0.1076985 0.328221
vt 0.1069946 0.3301073
vt 0.1086825 0.3291777
vt 0.1071476 0.3304172
vt 0.1088162 0.3299429
vt 0.1072076 0.3308907
vt 0.1088622 0.3307912
vt 0.1072076 0.3447618
vt 0.1088622 0.3448613
vt 0.1071476 0.3452353
vt 0.1088162 0.3457096
vt 0.1069946 0.3455452
vt 0.1086825 0.3464748
vt 0.1067434 0.3457894
vt 0.1076985 0.3474316
vt 0.1064247 0.3459383
vt 0.1069114 0.3475615
vt 0.1059379 0.3459964
vt 0.106039 0.3476063
vt 0.06995077 0.3459482
vt 0.06995077 0.3476063
vt 0.06995077 0.3459482
vt 0.06995077 0.3459482
vt 0.1059379 0.3459964
vt 0.1059379 0.3459964
vt 0.06995077 0.3459482
vt 0.1059379 0.3459964
vt 0.1064247 0.3459383
vt 0.1064247 0.3459382
vt 0.1067434 0.3457894
vt 0.1067434 0.3457894
vt 0.1059379 0.3459964
vt 0.1064247 0.3459382
vt 0.1064248 0.3459382
vt 0.1067434 0.3457894
vt 0.1069946 0.3455452
vt 0.1069946 0.3455453
vt 0.1071476 0.3452353
vt 0.1071476 0.3452353
vt 0.1072076 0.3447618
vt 0.1072076 0.3447618
vt 0.1064247 0.3459382
vt 0.1067434 0.3457894
vt 0.1067435 0.3457894
vt 0.1069946 0.3455453
vt 0.1069946 0.3455453
vt 0.1071476 0.3452353
vt 0.1071476 0.3452353
vt 0.1072076 0.3447618
vt 0.1072076 0.3308907
vt 0.1072076 0.3308907
vt 0.1071476 0.3452353
vt 0.1071476 0.3452353
vt 0.1072076 0.3447619
vt 0.1072076 0.3308907
vt 0.1071476 0.3304172
vt 0.1071476 0.3304172
vt 0.1072076 0.3308907
vt 0.1071476 0.3304172
vt 0.1069946 0.3301073
vt 0.1069946 0.3301073
vt 0.1067434 0.329863
vt 0.1067434 0.3298631
vt 0.1072076 0.3447619
vt 0.1072076 0.3447618
vt 0.1072076 0.3308907
vt 0.1067434 0.3298631
vt 0.1064247 0.3297143
vt 0.1064247 0.3297142
vt 0.1064248 0.3297143
vt 0.1067434 0.329863
vt 0.1059379 0.329656
vt 0.1059379 0.3296561
vt 0.1069946 0.3301073
vt 0.1067434 0.329863
vt 0.1069946 0.3301073
vt 0.1071476 0.3304172
vt 0.1071476 0.3304172
vt 0.1059379 0.3296561
vt 0.1059379 0.329656
vt 0.06995077 0.3297043
vt 0.06995077 0.3297042
vt 0.1059379 0.3296561
vt 0.06995077 0.3297042
vt 0.1064247 0.3297142
vt 0.1064247 0.3297143
vt 0.06995077 0.3459482
vt 0.06995077 0.3459482
vt 0.06995077 0.3476063
vt 0.06995077 0.3476063
vt 0.06995077 0.3459482
vt 0.06995077 0.3280462
vt 0.06995077 0.3280462
vt 0.06995077 0.3297042
vt 0.06995077 0.3297042
vt 0.06995077 0.3297043
vn -0.9955336 0.09440753 0
vn -1 0 0
vn -1 0 0
vn -0.9955336 0.09440751 0
vn -0.9321529 0.362065 0
vn -0.9321529 0.362065 0
vn -0.7546579 0.6561184 0
vn -0.7546579 0.6561185 0
vn -0.5185825 0.8550276 0
vn -0.5185825 0.8550276 0
vn -0.2616116 0.9651732 0
vn -0.2616116 0.9651732 0
vn -0.06512135 0.9978774 0
vn -0.06512135 0.9978774 0
vn 0.06512135 0.9978774 0
vn 0.06512135 0.9978774 0
vn 0.2616116 0.9651732 0
vn 0.2616116 0.9651732 0
vn 0.518582 0.8550279 0
vn 0.518582 0.8550279 0
vn 0.7546576 0.656119 0
vn 0.7546574 0.6561189 0
vn 0.9321534 0.3620636 0
vn 0.9321534 0.3620636 0
vn 0.9955337 0.09440603 0
vn 0.9955337 0.09440604 0
vn 1 0 0
vn 1 0 0
vn 0 0 -1
vn 0 0 -1
vn 0 0 -1
vn 0 0 -1
vn 0 0 -1
vn 0 0 -1
vn 0 0 -1
vn 0 0 -1
vn 0 0 -1
vn 0 0 -1
vn 0 0 -1
vn 0 0 -1
vn 0 0 -1
vn 0 0 -1
vn 0 0 -1
vn 0 0 -1
vn 0 0 -1
vn 0 0 -1
vn 0 0 -1
vn 0 0 -1
vn 0 0 -1
vn 0 0 -1
vn 0 0 -1
vn 0 0 -1
vn 0 0 -1
vn 0 0 -1
vn 0 0 -1
vn 0 0 -1
vn 0 0 1
vn 0 0 1
vn 0 0 1
vn 0 0 1
vn 0 0 1
vn 0 0 1
vn 0 0 1
vn 0 0 1
vn 0 0 1
vn 0 0 1
vn 0 0 1
vn 0 0 1
vn 0 0 1
vn 0 0 1
vn 0 0 1
vn 0 0 1
vn 0 0 1
vn 0 0 1
vn 0 0 1
vn 0 0 1
vn 0 0 1
vn 0 0 1
vn 0 0 1
vn 0 0 1
vn 0 0 1
vn 0 0 1
vn 0 0 1
vn 0 0 1
vn 1 0 0
vn 1 0 0
vn 0.9955338 -0.09440465 0
vn 0.9955338 -0.09440552 0
vn 1 0 0
vn 0.9955337 -0.09440641 0
vn 0.9321539 -0.3620624 0
vn 0.9321539 -0.3620622 0
vn 0.7546572 -0.6561193 0
vn 0.7546579 -0.6561184 0
vn 0.9955337 -0.09440641 0
vn 0.9321539 -0.3620622 0
vn 0.9321539 -0.362062 0
vn 0.7546572 -0.6561193 0
vn 0.5185822 -0.8550277 0
vn 0.5185822 -0.8550277 0
vn 0.2616136 -0.9651726 0
vn 0.2616136 -0.9651726 0
vn 0.06512283 -0.9978772 0
vn 0.06512281 -0.9978772 0
vn 0.9321539 -0.3620622 0
vn 0.7546579 -0.6561184 0
vn 0.7546586 -0.6561177 0
vn 0.5185822 -0.8550277 0
vn 0.5185822 -0.8550277 0
vn 0.2616136 -0.9651726 0
vn 0.2616136 -0.9651726 0
vn 0.06512281 -0.9978772 0
vn -0.06512283 -0.9978772 0
vn -0.06512282 -0.9978772 0
vn 0.2616136 -0.9651726 0
vn 0.2616136 -0.9651726 0
vn 0.06512281 -0.9978772 0
vn -0.06512282 -0.9978772 0
vn -0.2616136 -0.9651726 0
vn -0.2616136 -0.9651726 0
vn -0.06512281 -0.9978772 0
vn -0.2616136 -0.9651726 0
vn -0.5185819 -0.8550279 0
vn -0.5185822 -0.8550277 0
vn -0.7546587 -0.6561176 0
vn -0.7546586 -0.6561177 0
vn 0.06512281 -0.9978772 0
vn 0.06512281 -0.9978772 0
vn -0.06512281 -0.9978772 0
vn -0.7546586 -0.6561177 0
vn -0.9321541 -0.3620615 0
vn -0.9321539 -0.362062 0
vn -0.9321544 -0.3620611 0
vn -0.7546588 -0.6561175 0
vn -0.9955337 -0.09440648 0
vn -0.9955337 -0.09440644 0
vn -0.5185819 -0.8550279 0
vn -0.7546587 -0.6561176 0
vn -0.5185817 -0.8550281 0
vn -0.2616136 -0.9651726 0
vn -0.2616136 -0.9651726 0
vn -0.9955337 -0.09440644 0
vn -0.9955337 -0.09440648 0
vn -1 0 0
vn -1 0 0
vn -0.9955337 -0.09440642 0
vn -1 0 0
vn -0.9321539 -0.362062 0
vn -0.9321541 -0.3620615 0
vn 0 -1 0
vn 0 -1 0
vn 0 -1 0
vn 0 -1 0
vn 0 -1 0
vn 0 -1 0
vn 0 -1 0
vn 0 -1 0
vn 0 -1 0
vn 0 -1 0
g Cube.017_0
f 3/3/3 2/2/2 1/1/1
f 2/2/2 4/4/4 1/1/1
f 1/1/1 4/4/4 5/5/5
f 6/6/6 1/1/1 5/5/5
f 6/6/6 5/5/5 7/7/7
f 8/8/8 6/6/6 7/7/7
f 8/8/8 7/7/7 9/9/9
f 10/10/10 8/8/8 9/9/9
f 10/10/10 9/9/9 11/11/11
f 12/12/12 10/10/10 11/11/11
f 12/12/12 11/11/11 13/13/13
f 14/14/14 12/12/12 13/13/13
f 14/14/14 13/13/13 15/15/15
f 13/13/13 16/16/16 15/15/15
f 15/15/15 16/16/16 17/17/17
f 18/18/18 15/15/15 17/17/17
f 18/18/18 17/17/17 19/19/19
f 20/20/20 18/18/18 19/19/19
f 20/20/20 19/19/19 21/21/21
f 22/22/22 20/20/20 21/21/21
f 22/22/22 21/21/21 23/23/23
f 24/24/24 22/22/22 23/23/23
f 24/24/24 23/23/23 25/25/25
f 26/26/26 24/24/24 25/25/25
f 26/26/26 25/25/25 27/27/27
f 25/25/25 28/28/28 27/27/27
f 31/31/31 30/30/30 29/29/29
f 32/32/32 31/31/31 29/29/29
f 33/33/33 31/31/31 32/32/32
f 34/34/34 33/33/33 32/32/32
f 35/35/35 33/33/33 34/34/34
f 36/36/36 35/35/35 34/34/34
f 37/37/37 35/35/35 36/36/36
f 38/38/38 37/37/37 36/36/36
f 39/39/39 37/37/37 38/38/38
f 40/40/40 39/39/39 38/38/38
f 41/41/41 39/39/39 40/40/40
f 42/42/42 41/41/41 40/40/40
f 43/43/43 41/41/41 42/42/42
f 44/44/44 43/43/43 42/42/42
f 45/45/45 43/43/43 44/44/44
f 46/46/46 45/45/45 44/44/44
f 47/47/47 45/45/45 46/46/46
f 48/48/48 47/47/47 46/46/46
f 49/49/49 47/47/47 48/48/48
f 50/50/50 49/49/49 48/48/48
f 51/51/51 49/49/49 50/50/50
f 52/52/52 51/51/51 50/50/50
f 53/53/53 51/51/51 52/52/52
f 54/54/54 53/53/53 52/52/52
f 55/55/55 53/53/53 54/54/54
f 56/56/56 55/55/55 54/54/54
f 59/59/59 58/58/58 57/57/57
f 58/58/58 60/60/60 57/57/57
f 57/57/57 60/60/60 61/61/61
f 60/60/60 62/62/62 61/61/61
f 61/61/61 62/62/62 63/63/63
f 62/62/62 64/64/64 63/63/63
f 63/63/63 64/64/64 65/65/65
f 64/64/64 66/66/66 65/65/65
f 65/65/65 66/66/66 67/67/67
f 66/66/66 68/68/68 67/67/67
f 67/67/67 68/68/68 69/69/69
f 68/68/68 70/70/70 69/69/69
f 69/69/69 70/70/70 71/71/71
f 70/70/70 72/72/72 71/71/71
f 71/71/71 72/72/72 73/73/73
f 72/72/72 74/74/74 73/73/73
f 73/73/73 74/74/74 75/75/75
f 74/74/74 76/76/76 75/75/75
f 75/75/75 76/76/76 77/77/77
f 76/76/76 78/78/78 77/77/77
f 77/77/77 78/78/78 79/79/79
f 78/78/78 80/80/80 79/79/79
f 79/79/79 80/80/80 81/81/81
f 80/80/80 82/82/82 81/81/81
f 81/81/81 82/82/82 83/83/83
f 82/82/82 84/84/84 83/83/83
f 87/87/87 86/86/86 85/85/85
f 88/88/88 87/87/87 85/85/85
f 88/88/88 85/85/85 89/89/89
f 90/90/90 88/88/88 89/89/89
f 91/91/91 87/87/87 88/88/88
f 92/92/92 91/91/91 88/88/88
f 93/93/93 91/91/91 92/92/92
f 94/94/94 93/93/93 92/92/92
f 96/96/96 88/88/88 95/95/95
f 97/97/97 96/96/96 95/95/95
f 99/99/99 98/98/98 94/94/94
f 100/100/100 99/99/99 94/94/94
f 101/101/101 99/99/99 100/100/100
f 102/102/102 101/101/101 100/100/100
f 103/103/103 101/101/101 102/102/102
f 104/104/104 103/103/103 102/102/102
f 106/106/106 105/105/105 97/97/97
f 107/107/107 106/106/106 97/97/97
f 100/100/100 106/106/106 107/107/107
f 108/108/108 100/100/100 107/107/107
f 110/110/110 100/100/100 109/109/109
f 111/111/111 110/110/110 109/109/109
f 113/113/113 103/103/103 112/112/112
f 114/114/114 113/113/113 112/112/112
f 112/112/112 116/116/116 115/115/115
f 117/117/117 112/112/112 115/115/115
f 119/119/119 113/113/113 118/118/118
f 120/120/120 119/119/119 118/118/118
f 120/120/120 114/114/114 121/121/121
f 122/122/122 120/120/120 121/121/121
f 123/123/123 120/120/120 122/122/122
f 124/124/124 123/123/123 122/122/122
f 125/125/125 123/123/123 124/124/124
f 126/126/126 125/125/125 124/124/124
f 114/114/114 128/128/128 127/127/127
f 129/129/129 114/114/114 127/127/127
f 131/131/131 125/125/125 130/130/130
f 132/132/132 131/131/131 130/130/130
f 131/131/131 133/133/133 125/125/125
f 133/133/133 134/134/134 125/125/125
f 135/135/135 133/133/133 131/131/131
f 136/136/136 135/135/135 131/131/131
f 138/138/138 134/134/134 137/137/137
f 134/134/134 139/139/139 137/137/137
f 137/137/137 139/139/139 140/140/140
f 139/139/139 141/141/141 140/140/140
f 144/144/144 143/143/143 142/142/142
f 145/145/145 144/144/144 142/142/142
f 145/145/145 142/142/142 146/146/146
f 147/147/147 145/145/145 146/146/146
f 146/146/146 142/142/142 148/148/148
f 142/142/142 149/149/149 148/148/148
f 152/152/152 151/151/151 150/150/150
f 150/150/150 153/153/153 152/152/152
f 150/150/150 154/154/154 153/153/153
f 157/157/157 156/156/156 155/155/155
f 155/155/155 158/158/158 157/157/157
f 155/155/155 159/159/159 158/158/158
