g Cube.010
v -2.70861 6.924472 -0.8562448
v -2.70861 6.924472 0.9204659
v -2.70861 8.889795 0.9204658
v -2.70861 8.889795 -0.8562449
v -2.722967 6.924472 -0.9284236
v -2.722967 8.889795 -0.9284238
v -2.763853 6.924472 -0.9896138
v -2.763853 8.889795 -0.989614
v -3.28074 6.924472 0.9204659
v -3.28074 8.889795 -0.8562449
v -3.28074 8.889795 0.9204658
v -3.28074 6.924472 -0.8562448
v -3.266382 8.889795 -0.9284238
v -3.266382 6.924472 -0.9284236
v -3.225496 8.889795 -0.989614
v -3.225496 6.924472 -0.9896138
v -3.164306 8.889795 -1.0305
v -3.164306 6.924472 -1.0305
v -3.092127 8.889795 -1.044857
v -3.092127 6.924472 -1.044857
v -2.897222 8.889795 -1.044857
v -2.897222 6.924472 -1.044857
v -2.825043 8.889795 -1.0305
v -2.825043 6.924472 -1.0305
v -2.763853 8.889795 -0.989614
v -2.763853 6.924472 -0.9896138
v -2.801679 8.889795 0.9204658
v -2.70861 8.889795 0.9204658
v -2.70861 6.924472 0.9204659
v -2.801679 6.924472 0.9204659
v -3.18767 6.924472 0.9204659
v -3.28074 6.924472 0.9204659
v -3.28074 8.889795 0.9204658
v -3.18767 8.889795 0.9204658
v -2.801679 6.924472 0.9204659
v -2.70861 6.924472 0.9204659
v -2.70861 6.924472 -0.8562448
v -2.801679 6.924472 -0.8470783
v -2.722967 6.924472 -0.9284236
v -2.810636 6.924472 -0.8921098
v -2.763853 6.924472 -0.9896138
v -2.830952 6.924472 -0.9225147
v -2.825043 6.924472 -1.0305
v -2.861357 6.924472 -0.9428306
v -2.897222 6.924472 -1.044857
v -2.906389 6.924472 -0.9517879
v -3.092127 6.924472 -1.044857
v -3.082961 6.924472 -0.9517879
v -3.164306 6.924472 -1.0305
v -3.127992 6.924472 -0.9428306
v -3.225496 6.924472 -0.9896138
v -3.158397 6.924472 -0.9225147
v -3.266382 6.924472 -0.9284236
v -3.178713 6.924472 -0.8921098
v -3.28074 6.924472 -0.8562448
v -3.18767 6.924472 -0.8470783
v -3.28074 6.924472 0.9204659
v -3.18767 6.924472 0.9204659
v -2.801679 8.889795 -0.8470784
v -2.70861 8.889795 0.9204658
v -2.801679 8.889795 0.9204658
v -2.70861 8.889795 -0.8562449
v -2.810636 8.889795 -0.8921099
v -2.722967 8.889795 -0.9284238
v -2.830952 8.889795 -0.9225149
v -2.763853 8.889795 -0.989614
v -2.861357 8.889795 -0.9428307
v -2.825043 8.889795 -1.0305
v -2.906389 8.889795 -0.951788
v -2.897222 8.889795 -1.044857
v -3.082961 8.889795 -0.951788
v -3.092127 8.889795 -1.044857
v -3.127992 8.889795 -0.9428307
v -3.164306 8.889795 -1.0305
v -3.158397 8.889795 -0.9225149
v -3.225496 8.889795 -0.989614
v -3.178713 8.889795 -0.8921099
v -3.266382 8.889795 -0.9284238
v -3.18767 8.889795 -0.8470784
v -3.28074 8.889795 -0.8562449
v -3.18767 8.889795 0.9204658
v -3.28074 8.889795 0.9204658
v -2.801679 6.977958 0.8669799
v -3.18767 6.977958 0.8669799
v -3.18767 8.836309 0.8669798
v -2.801679 8.836309 0.8669798
v -3.127992 8.814155 -0.9428307
v -3.082961 8.814155 -0.9517879
v -2.906389 8.814155 -0.9517879
v -2.861357 8.814155 -0.9428307
v -3.158397 8.814155 -0.9225148
v -2.830952 8.814155 -0.9225148
v -3.178713 8.814155 -0.8921099
v -2.810636 8.814155 -0.8921099
v -3.18767 8.814155 -0.8470784
v -2.801679 8.814155 -0.8470784
v -3.18767 8.836309 0.8669798
v -2.801679 8.836309 0.8669798
v -2.861357 7.000113 -0.9428306
v -2.906389 7.000113 -0.9517879
v -3.082961 7.000113 -0.9517879
v -3.127992 7.000113 -0.9428306
v -2.830952 7.000113 -0.9225147
v -3.158397 7.000113 -0.9225147
v -2.810636 7.000113 -0.8921098
v -3.178713 7.000113 -0.8921098
v -2.801679 7.000113 -0.8470783
v -3.18767 7.000113 -0.8470783
v -2.801679 6.977958 0.8669799
v -3.18767 6.977958 0.8669799
v -2.801679 8.889795 0.9204658
v -2.801679 8.836309 0.8669798
v -2.801679 8.814155 -0.8470784
v -2.801679 8.889795 -0.8470784
v -2.810636 8.814155 -0.8921099
v -2.810636 8.889795 -0.8921099
v -2.830952 8.814155 -0.9225148
v -2.830952 8.889795 -0.9225149
v -2.861357 8.814155 -0.9428307
v -2.861357 8.889795 -0.9428307
v -2.906389 8.814155 -0.9517879
v -2.906389 8.889795 -0.951788
v -3.082961 8.814155 -0.9517879
v -3.082961 8.889795 -0.951788
v -3.127992 8.814155 -0.9428307
v -3.127992 8.889795 -0.9428307
v -3.158397 8.814155 -0.9225148
v -3.158397 8.889795 -0.9225149
v -3.178713 8.814155 -0.8921099
v -3.178713 8.889795 -0.8921099
v -3.18767 8.814155 -0.8470784
v -3.18767 8.889795 -0.8470784
v -3.18767 8.836309 0.8669798
v -3.18767 8.889795 0.9204658
v -3.18767 6.977958 0.8669799
v -3.18767 6.924472 0.9204659
v -3.18767 7.000113 -0.8470783
v -3.18767 6.924472 -0.8470783
v -3.178713 7.000113 -0.8921098
v -3.178713 6.924472 -0.8921098
v -3.158397 7.000113 -0.9225147
v -3.158397 6.924472 -0.9225147
v -3.127992 7.000113 -0.9428306
v -3.127992 6.924472 -0.9428306
v -3.082961 7.000113 -0.9517879
v -3.082961 6.924472 -0.9517879
v -2.906389 7.000113 -0.9517879
v -2.906389 6.924472 -0.9517879
v -2.861357 7.000113 -0.9428306
v -2.861357 6.924472 -0.9428306
v -2.830952 7.000113 -0.9225147
v -2.830952 6.924472 -0.9225147
v -2.810636 7.000113 -0.8921098
v -2.810636 6.924472 -0.8921098
v -2.801679 7.000113 -0.8470783
v -2.801679 6.924472 -0.8470783
v -2.801679 6.977958 0.8669799
v -2.801679 6.924472 0.9204659
v -2.801679 6.924472 0.9204659
v -2.801679 6.977958 0.8669799
v -2.801679 8.836309 0.8669798
v -2.801679 8.889795 0.9204658
vt 0.3123488 0.4161897
vt 0.3123488 0.4235258
vt 0.3204637 0.4235258
vt 0.3204637 0.4161897
vt 0.3123488 0.4158917
vt 0.3204637 0.4158917
vt 0.3123488 0.4154109
vt 0.3204637 0.4154109
vt 0.3123488 0.4316406
vt 0.3204637 0.4389767
vt 0.3204637 0.4316406
vt 0.3123488 0.4389767
vt 0.3205315 0.4392747
vt 0.312281 0.4392747
vt 0.3207248 0.4396794
vt 0.3120877 0.4396794
vt 0.3210142 0.4408367
vt 0.3117983 0.4408367
vt 0.3204637 0.4424307
vt 0.3123488 0.4424307
vt 0.3204637 0.4451951
vt 0.3123488 0.4451951
vt 0.3204637 0.4462188
vt 0.3123488 0.4462188
vt 0.3204637 0.4478703
vt 0.3123488 0.4478703
vt 0.3204637 0.4248458
vt 0.3204637 0.4235258
vt 0.3123488 0.4235258
vt 0.3123488 0.4248458
vt 0.3110288 0.4316406
vt 0.3123488 0.4316406
vt 0.3204637 0.4316406
vt 0.3217837 0.4316406
vt 0.305554 0.4316406
vt 0.304234 0.4316406
vt 0.304234 0.4389767
vt 0.3055721 0.4389522
vt 0.3044376 0.4392747
vt 0.3056986 0.4391377
vt 0.3050175 0.4395274
vt 0.305988 0.4392642
vt 0.3058854 0.4396962
vt 0.3064228 0.4393509
vt 0.3069092 0.4397555
vt 0.3070715 0.4393959
vt 0.3096737 0.4397555
vt 0.3097839 0.4395757
vt 0.3117983 0.4408367
vt 0.3105389 0.4396216
vt 0.3120877 0.4396794
vt 0.3109445 0.4394811
vt 0.312281 0.4392747
vt 0.311136 0.4392667
vt 0.3123488 0.4389767
vt 0.311167 0.4390212
vt 0.3123488 0.4316406
vt 0.3110288 0.4316406
vt 0.3272404 0.4389521
vt 0.3285785 0.4316406
vt 0.3272585 0.4316406
vt 0.3285785 0.4389767
vt 0.3271139 0.4391377
vt 0.3283749 0.4392747
vt 0.3268245 0.4392642
vt 0.327795 0.4395274
vt 0.3263897 0.4393509
vt 0.3269271 0.4396962
vt 0.325741 0.4393959
vt 0.3259033 0.4397555
vt 0.3230286 0.4395757
vt 0.3231389 0.4397555
vt 0.3222737 0.4396216
vt 0.3210142 0.4408367
vt 0.321868 0.4394811
vt 0.3207248 0.4396794
vt 0.3216765 0.4392667
vt 0.3205315 0.4392747
vt 0.3216455 0.4390212
vt 0.3204637 0.4389767
vt 0.3217837 0.4316406
vt 0.3204637 0.4316406
vt 0.5935988 0.8877364
vt 0.5922787 0.8945312
vt 0.6030337 0.8945312
vt 0.6017137 0.8877364
vt 0.6035236 0.9025121
vt 0.6042786 0.9024662
vt 0.6069909 0.9022865
vt 0.6076397 0.9022415
vt 0.6031179 0.9023716
vt 0.6080745 0.9021548
vt 0.6029265 0.9021572
vt 0.6083639 0.9020283
vt 0.6028955 0.9019117
vt 0.6084903 0.9018427
vt 0.6030337 0.8945312
vt 0.6085085 0.8945312
vt 0.5876727 0.9022415
vt 0.5883214 0.9022865
vt 0.5910339 0.9024662
vt 0.5917889 0.9025121
vt 0.587238 0.9021548
vt 0.5921944 0.9023716
vt 0.5869485 0.9020283
vt 0.592386 0.9021572
vt 0.586822 0.9018428
vt 0.592417 0.9019117
vt 0.586804 0.8945312
vt 0.5922787 0.8945312
vt 0.3272585 0.4316406
vt 0.3272585 0.4316406
vt 0.3272404 0.4389521
vt 0.3272404 0.4389521
vt 0.3271139 0.4391377
vt 0.3271139 0.4391377
vt 0.3268245 0.4392642
vt 0.3268245 0.4392642
vt 0.3263897 0.4393509
vt 0.3263897 0.4393509
vt 0.325741 0.4393959
vt 0.325741 0.4393959
vt 0.3230286 0.4395757
vt 0.3230286 0.4395757
vt 0.3222737 0.4396216
vt 0.3222737 0.4396216
vt 0.321868 0.4394811
vt 0.321868 0.4394811
vt 0.3216765 0.4392667
vt 0.3216765 0.4392667
vt 0.3216455 0.4390212
vt 0.3216455 0.4390212
vt 0.3217837 0.4316406
vt 0.3217837 0.4316406
vt 0.3110288 0.4316406
vt 0.3110288 0.4316406
vt 0.311167 0.4390212
vt 0.311167 0.4390212
vt 0.311136 0.4392667
vt 0.311136 0.4392667
vt 0.3109445 0.4394811
vt 0.3109445 0.4394811
vt 0.3105389 0.4396216
vt 0.3105389 0.4396216
vt 0.3097839 0.4395757
vt 0.3097839 0.4395757
vt 0.3070715 0.4393959
vt 0.3070715 0.4393959
vt 0.3064228 0.4393509
vt 0.3064228 0.4393509
vt 0.305988 0.4392642
vt 0.305988 0.4392642
vt 0.3056986 0.4391377
vt 0.3056986 0.4391377
vt 0.3055721 0.4389522
vt 0.3055721 0.4389522
vt 0.305554 0.4316406
vt 0.305554 0.4316406
vt 0.3123488 0.4248458
vt 0.3123488 0.4248458
vt 0.3204637 0.4248458
vt 0.3204637 0.4248458
vn 0.9951847 0 -0.09801747
vn 1 0 0
vn 1 0 0
vn 0.9951847 0 -0.09801747
vn 0.9238794 0 -0.3826836
vn 0.9238794 0 -0.3826836
vn 0.7071063 0 -0.7071072
vn 0.7071062 0 -0.7071072
vn -1 0 0
vn -0.9951848 0 -0.09801606
vn -1 0 0
vn -0.9951848 0 -0.09801605
vn -0.9238795 0 -0.3826835
vn -0.9238795 0 -0.3826835
vn -0.7071059 0 -0.7071076
vn -0.7071059 0 -0.7071075
vn -0.382684 0 -0.9238793
vn -0.382684 0 -0.9238793
vn -0.09801771 0 -0.9951847
vn -0.09801771 0 -0.9951847
vn 0.09801771 0 -0.9951847
vn 0.09801771 0 -0.9951847
vn 0.3826831 0 -0.9238796
vn 0.3826831 0 -0.9238796
vn 0.7071062 0 -0.7071072
vn 0.7071063 0 -0.7071072
vn 0 0 1
vn 0 0 1
vn 0 0 1
vn 0 0 1
vn 0 0 1
vn 0 0 1
vn 0 0 1
vn 0 0 1
vn 0 -1 0
vn 0 -1 0
vn 0 -1 0
vn 0 -1 0
vn 0 -1 0
vn 0 -1 0
vn 0 -1 0
vn 0 -1 0
vn 0 -1 0
vn 0 -1 0
vn 0 -1 0
vn 0 -1 0
vn 0 -1 0
vn 0 -1 0
vn 0 -1 0
vn 0 -1 0
vn 0 -1 0
vn 0 -1 0
vn 0 -1 0
vn 0 -1 0
vn 0 -1 0
vn 0 -1 0
vn 0 -1 0
vn 0 -1 0
vn 0 1 0
vn 0 1 0
vn 0 1 0
vn 0 1 0
vn 0 1 0
vn 0 1 0
vn 0 1 0
vn 0 1 0
vn 0 1 0
vn 0 1 0
vn 0 1 0
vn 0 1 0
vn 0 1 0
vn 0 1 0
vn 0 1 0
vn 0 1 0
vn 0 1 0
vn 0 1 0
vn 0 1 0
vn 0 1 0
vn 0 1 0
vn 0 1 0
vn 0 1 0
vn 0 1 0
vn 0 0 1
vn 0 0 1
vn 0 0 1
vn 0 0 1
vn 0 0.9999248 -0.01226526
vn 0 0.9999248 -0.01226526
vn 0 0.9999248 -0.01226526
vn 0 0.9999248 -0.01226526
vn 0 0.9999248 -0.01226526
vn 0 0.9999248 -0.01226526
vn 0 0.9999248 -0.01226526
vn 0 0.9999248 -0.01226526
vn 0 0.9999248 -0.01226526
vn 0 0.9999248 -0.01226526
vn 0 0.9999248 -0.01226526
vn 0 0.9999248 -0.01226526
vn 0 -0.9999248 -0.01226462
vn 0 -0.9999248 -0.01226462
vn 0 -0.9999248 -0.01226462
vn 0 -0.9999248 -0.01226462
vn 0 -0.9999248 -0.01226462
vn 0 -0.9999248 -0.01226462
vn 0 -0.9999248 -0.01226462
vn 0 -0.9999248 -0.01226462
vn 0 -0.9999248 -0.01226462
vn 0 -0.9999248 -0.01226462
vn 0 -0.9999248 -0.01226462
vn 0 -0.9999248 -0.01226462
vn -1 0 0
vn -1 0 0
vn -0.9951449 0 0.09842035
vn -0.9951848 0 0.09801556
vn -0.9238799 0 0.3826825
vn -0.9238798 0 0.3826826
vn -0.7071047 0 0.7071088
vn -0.7071046 0 0.7071089
vn -0.3826804 0 0.9238808
vn -0.3826803 0 0.9238808
vn -0.09801614 0 0.9951848
vn -0.09801614 0 0.9951848
vn 0.09801614 0 0.9951848
vn 0.09801614 0 0.9951848
vn 0.382686 0 0.9238785
vn 0.3826858 0 0.9238785
vn 0.7071089 0 0.7071046
vn 0.7071089 0 0.7071047
vn 0.9238787 0 0.3826854
vn 0.9238787 0 0.3826855
vn 0.9951445 0 0.0984235
vn 0.9951846 0 0.09801871
vn 1 0 0
vn 1 0 0
vn 1 0 0
vn 1 0 0
vn 0.9951447 0 0.0984225
vn 0.9951847 0 0.0980176
vn 0.9238802 0 0.3826817
vn 0.9238802 0 0.3826817
vn 0.7071081 0 0.7071055
vn 0.7071081 0 0.7071055
vn 0.3826821 0 0.92388
vn 0.3826821 0 0.92388
vn 0.09801613 0 0.9951848
vn 0.09801613 0 0.9951848
vn -0.09801613 0 0.9951848
vn -0.09801613 0 0.9951848
vn -0.3826807 0 0.9238806
vn -0.3826807 0 0.9238806
vn -0.707107 0 0.7071065
vn -0.707107 0 0.7071065
vn -0.9238812 0 0.3826793
vn -0.9238812 0 0.3826793
vn -0.9951449 0 0.09841987
vn -0.995185 0 0.098015
vn -1 0 0
vn -1 0 0
vn -1 0 0
vn -1 0 0
vn -1 0 0
vn -1 0 0
g Cube.010_0
f 3/3/3 2/2/2 1/1/1
f 4/4/4 3/3/3 1/1/1
f 4/4/4 1/1/1 5/5/5
f 6/6/6 4/4/4 5/5/5
f 6/6/6 5/5/5 7/7/7
f 8/8/8 6/6/6 7/7/7
f 11/11/11 10/10/10 9/9/9
f 10/10/10 12/12/12 9/9/9
f 12/12/12 10/10/10 13/13/13
f 14/14/14 12/12/12 13/13/13
f 14/14/14 13/13/13 15/15/15
f 16/16/16 14/14/14 15/15/15
f 16/16/16 15/15/15 17/17/17
f 18/18/18 16/16/16 17/17/17
f 18/18/18 17/17/17 19/19/19
f 20/20/20 18/18/18 19/19/19
f 19/19/19 21/21/21 20/20/20
f 21/21/21 22/22/22 20/20/20
f 21/21/21 23/23/23 22/22/22
f 23/23/23 24/24/24 22/22/22
f 23/23/23 25/25/25 24/24/24
f 25/25/25 26/26/26 24/24/24
f 29/29/29 28/28/28 27/27/27
f 30/30/30 29/29/29 27/27/27
f 33/33/33 32/32/32 31/31/31
f 34/34/34 33/33/33 31/31/31
f 37/37/37 36/36/36 35/35/35
f 38/38/38 37/37/37 35/35/35
f 39/39/39 37/37/37 38/38/38
f 40/40/40 39/39/39 38/38/38
f 41/41/41 39/39/39 40/40/40
f 42/42/42 41/41/41 40/40/40
f 43/43/43 41/41/41 42/42/42
f 44/44/44 43/43/43 42/42/42
f 45/45/45 43/43/43 44/44/44
f 46/46/46 45/45/45 44/44/44
f 47/47/47 45/45/45 46/46/46
f 48/48/48 47/47/47 46/46/46
f 49/49/49 47/47/47 48/48/48
f 50/50/50 49/49/49 48/48/48
f 51/51/51 49/49/49 50/50/50
f 52/52/52 51/51/51 50/50/50
f 53/53/53 51/51/51 52/52/52
f 54/54/54 53/53/53 52/52/52
f 55/55/55 53/53/53 54/54/54
f 56/56/56 55/55/55 54/54/54
f 57/57/57 55/55/55 56/56/56
f 58/58/58 57/57/57 56/56/56
f 61/61/61 60/60/60 59/59/59
f 60/60/60 62/62/62 59/59/59
f 59/59/59 62/62/62 63/63/63
f 62/62/62 64/64/64 63/63/63
f 63/63/63 64/64/64 65/65/65
f 64/64/64 66/66/66 65/65/65
f 65/65/65 66/66/66 67/67/67
f 66/66/66 68/68/68 67/67/67
f 67/67/67 68/68/68 69/69/69
f 68/68/68 70/70/70 69/69/69
f 69/69/69 70/70/70 71/71/71
f 70/70/70 72/72/72 71/71/71
f 71/71/71 72/72/72 73/73/73
f 72/72/72 74/74/74 73/73/73
f 73/73/73 74/74/74 75/75/75
f 74/74/74 76/76/76 75/75/75
f 75/75/75 76/76/76 77/77/77
f 76/76/76 78/78/78 77/77/77
f 77/77/77 78/78/78 79/79/79
f 78/78/78 80/80/80 79/79/79
f 79/79/79 80/80/80 81/81/81
f 80/80/80 82/82/82 81/81/81
f 85/85/85 84/84/84 83/83/83
f 86/86/86 85/85/85 83/83/83
f 89/89/89 88/88/88 87/87/87
f 87/87/87 90/90/90 89/89/89
f 87/87/87 91/91/91 90/90/90
f 91/91/91 92/92/92 90/90/90
f 91/91/91 93/93/93 92/92/92
f 93/93/93 94/94/94 92/92/92
f 93/93/93 95/95/95 94/94/94
f 95/95/95 96/96/96 94/94/94
f 95/95/95 97/97/97 96/96/96
f 97/97/97 98/98/98 96/96/96
f 101/101/101 100/100/100 99/99/99
f 99/99/99 102/102/102 101/101/101
f 99/99/99 103/103/103 102/102/102
f 103/103/103 104/104/104 102/102/102
f 103/103/103 105/105/105 104/104/104
f 105/105/105 106/106/106 104/104/104
f 105/105/105 107/107/107 106/106/106
f 107/107/107 108/108/108 106/106/106
f 107/107/107 109/109/109 108/108/108
f 109/109/109 110/110/110 108/108/108
f 113/113/113 112/112/112 111/111/111
f 114/114/114 113/113/113 111/111/111
f 115/115/115 113/113/113 114/114/114
f 116/116/116 115/115/115 114/114/114
f 117/117/117 115/115/115 116/116/116
f 118/118/118 117/117/117 116/116/116
f 119/119/119 117/117/117 118/118/118
f 120/120/120 119/119/119 118/118/118
f 121/121/121 119/119/119 120/120/120
f 122/122/122 121/121/121 120/120/120
f 123/123/123 121/121/121 122/122/122
f 124/124/124 123/123/123 122/122/122
f 125/125/125 123/123/123 124/124/124
f 126/126/126 125/125/125 124/124/124
f 127/127/127 125/125/125 126/126/126
f 128/128/128 127/127/127 126/126/126
f 129/129/129 127/127/127 128/128/128
f 130/130/130 129/129/129 128/128/128
f 131/131/131 129/129/129 130/130/130
f 132/132/132 131/131/131 130/130/130
f 133/133/133 131/131/131 132/132/132
f 134/134/134 133/133/133 132/132/132
f 135/135/135 133/133/133 134/134/134
f 136/136/136 135/135/135 134/134/134
f 137/137/137 135/135/135 136/136/136
f 138/138/138 137/137/137 136/136/136
f 139/139/139 137/137/137 138/138/138
f 140/140/140 139/139/139 138/138/138
f 141/141/141 139/139/139 140/140/140
f 142/142/142 141/141/141 140/140/140
f 143/143/143 141/141/141 142/142/142
f 144/144/144 143/143/143 142/142/142
f 145/145/145 143/143/143 144/144/144
f 146/146/146 145/145/145 144/144/144
f 147/147/147 145/145/145 146/146/146
f 148/148/148 147/147/147 146/146/146
f 149/149/149 147/147/147 148/148/148
f 150/150/150 149/149/149 148/148/148
f 151/151/151 149/149/149 150/150/150
f 152/152/152 151/151/151 150/150/150
f 153/153/153 151/151/151 152/152/152
f 154/154/154 153/153/153 152/152/152
f 155/155/155 153/153/153 154/154/154
f 156/156/156 155/155/155 154/154/154
f 157/157/157 155/155/155 156/156/156
f 158/158/158 157/157/157 156/156/156
f 161/161/161 160/160/160 159/159/159
f 162/162/162 161/161/161 159/159/159
