g FX_Arrow_01
v -0.1590376 -0.07702223 0.02981479
v -0.1590376 0.0001366585 0.02981479
v 0 0.08500058 0.02981479
v 0 0.007841689 0.02981479
v 0.1590376 -0.07702223 0.02981479
v 0.1590376 0.0001366585 0.02981479
v -0.1692455 0.005336463 0.02066151
v -0.1692455 0.005336463 -0.02066151
v 0 0.09466353 -0.02066151
v 0 0.09466353 0.02066151
v -0.1590376 0.000136658 -0.02981479
v -0.1590376 -0.07702223 -0.02981479
v 0 0.007841687 -0.02981479
v 0 0.08500058 -0.02981479
v 0.1590376 0.000136658 -0.02981479
v 0.1590376 -0.07702223 -0.02981479
v -0.1692455 -0.09466353 -0.02066151
v -0.1692455 -0.09466353 0.02066151
v 0 -0.005336463 0.02066151
v 0 -0.005336463 -0.02066151
v 0.1692455 -0.09466353 0.02066151
v 0.1692455 0.005336463 0.02066151
v 0.1692455 0.005336463 -0.02066151
v 0.1692455 -0.09466353 -0.02066151
v -0.1692455 -0.09466353 -0.02066151
v -0.1692455 0.005336463 -0.02066151
v -0.1692455 0.005336463 0.02066151
v -0.1692455 -0.09466353 0.02066151
v 0 0.09466353 0.02066151
v 0 0.09466353 -0.02066151
v 0.1692455 0.005336463 -0.02066151
v 0.1692455 0.005336463 0.02066151
v 0 -0.005336463 0.02066151
v 0.1692455 -0.09466353 0.02066151
v 0.1692455 -0.09466353 -0.02066151
v 0 -0.005336463 -0.02066151
v -0.1692455 -0.09466353 0.02066151
v -0.1590376 -0.07702223 0.02981479
v 0 0.007841689 0.02981479
v 0 -0.005336463 0.02066151
v 0 0.09466353 0.02066151
v 0 0.08500058 0.02981479
v -0.1590376 0.0001366585 0.02981479
v -0.1692455 0.005336463 0.02066151
v -0.1692455 0.005336463 0.02066151
v -0.1590376 0.0001366585 0.02981479
v -0.1590376 -0.07702223 0.02981479
v -0.1692455 -0.09466353 0.02066151
v 0 -0.005336463 0.02066151
v 0 0.007841689 0.02981479
v 0.1590376 -0.07702223 0.02981479
v 0.1692455 -0.09466353 0.02066151
v 0.1692455 -0.09466353 0.02066151
v 0.1590376 -0.07702223 0.02981479
v 0.1590376 0.0001366585 0.02981479
v 0.1692455 0.005336463 0.02066151
v 0.1692455 0.005336463 0.02066151
v 0.1590376 0.0001366585 0.02981479
v 0 0.08500058 0.02981479
v 0 0.09466353 0.02066151
v -0.1692455 0.005336463 -0.02066151
v -0.1590376 0.000136658 -0.02981479
v 0 0.08500058 -0.02981479
v 0 0.09466353 -0.02066151
v 0 -0.005336463 -0.02066151
v 0 0.007841687 -0.02981479
v -0.1590376 -0.07702223 -0.02981479
v -0.1692455 -0.09466353 -0.02066151
v -0.1692455 -0.09466353 -0.02066151
v -0.1590376 -0.07702223 -0.02981479
v -0.1590376 0.000136658 -0.02981479
v -0.1692455 0.005336463 -0.02066151
v 0 0.09466353 -0.02066151
v 0 0.08500058 -0.02981479
v 0.1590376 0.000136658 -0.02981479
v 0.1692455 0.005336463 -0.02066151
v 0.1692455 0.005336463 -0.02066151
v 0.1590376 0.000136658 -0.02981479
v 0.1590376 -0.07702223 -0.02981479
v 0.1692455 -0.09466353 -0.02066151
v 0.1692455 -0.09466353 -0.02066151
v 0.1590376 -0.07702223 -0.02981479
v 0 0.007841687 -0.02981479
v 0 -0.005336463 -0.02066151
vt 0.2472043 0.3066042
vt 0.2472043 0.3066042
vt 0.2472044 0.3066042
vt 0.2472044 0.3066042
vt 0.2472043 0.3066042
vt 0.2472043 0.3066042
vt 0.2472043 0.3066042
vt 0.2472043 0.3066042
vt 0.2472044 0.3066042
vt 0.2472044 0.3066042
vt 0.2472043 0.3066042
vt 0.2472043 0.3066042
vt 0.2472044 0.3066042
vt 0.2472044 0.3066042
vt 0.2472043 0.3066042
vt 0.2472043 0.3066042
vt 0.2472043 0.3066042
vt 0.2472043 0.3066041
vt 0.2472044 0.3066041
vt 0.2472044 0.3066042
vt 0.2472043 0.3066042
vt 0.2472043 0.3066042
vt 0.2472043 0.3066042
vt 0.2472043 0.3066042
vt 0.2472043 0.3066042
vt 0.2472043 0.3066042
vt 0.2472043 0.3066042
vt 0.2472043 0.3066042
vt 0.2472044 0.3066042
vt 0.2472044 0.3066042
vt 0.2472043 0.3066042
vt 0.2472043 0.3066042
vt 0.2472044 0.3066041
vt 0.2472043 0.3066041
vt 0.2472043 0.3066042
vt 0.2472044 0.3066042
vt 0.2472043 0.3066042
vt 0.2472043 0.3066042
vt 0.2472044 0.3066042
vt 0.2472044 0.3066042
vt 0.2472044 0.3066042
vt 0.2472044 0.3066042
vt 0.2472043 0.3066042
vt 0.2472043 0.3066042
vt 0.2472043 0.3066042
vt 0.2472043 0.3066042
vt 0.2472043 0.3066042
vt 0.2472043 0.3066042
vt 0.2472043 0.3066042
vt 0.2472043 0.3066042
vt 0.2472044 0.3066042
vt 0.2472044 0.3066042
vt 0.2472044 0.3066042
vt 0.2472044 0.3066042
vt 0.2472043 0.3066042
vt 0.2472043 0.3066042
vt 0.2472043 0.3066042
vt 0.2472043 0.3066042
vt 0.2472043 0.3066042
vt 0.2472043 0.3066042
vt 0.2472044 0.3066042
vt 0.2472044 0.3066042
vt 0.2472043 0.3066042
vt 0.2472043 0.3066042
vt 0.2472043 0.3066042
vt 0.2472043 0.3066042
vt 0.2472043 0.3066042
vt 0.2472043 0.3066042
vt 0.2472043 0.3066042
vt 0.2472043 0.3066042
vt 0.2472044 0.3066042
vt 0.2472044 0.3066042
vt 0.2472044 0.3066042
vt 0.2472044 0.3066042
vt 0.2472043 0.3066042
vt 0.2472043 0.3066042
vt 0.2472043 0.3066042
vt 0.2472043 0.3066042
vt 0.2472043 0.3066042
vt 0.2472043 0.3066042
vt 0.2472043 0.3066042
vt 0.2472043 0.3066042
vt 0.2472044 0.3066042
vt 0.2472044 0.3066042
vn 0 0 1
vn 0 0 1
vn 0 0 1
vn 0 0 1
vn 0 0 1
vn 0 0 1
vn -0.4667711 0.8843781 0
vn -0.4667711 0.8843781 0
vn -0.4667711 0.8843781 0
vn -0.4667711 0.8843781 0
vn 0 0 -1
vn 0 0 -1
vn 0 0 -1
vn 0 0 -1
vn 0 0 -1
vn 0 0 -1
vn 0.4667711 -0.8843781 0
vn 0.4667711 -0.8843781 0
vn 0.4667711 -0.8843781 0
vn 0.4667711 -0.8843781 0
vn 1 0 0
vn 1 0 0
vn 1 0 0
vn 1 0 0
vn -1 0 0
vn -1 0 0
vn -1 0 0
vn -1 0 0
vn 0.4667711 0.8843781 0
vn 0.4667711 0.8843781 0
vn 0.4667711 0.8843781 0
vn 0.4667711 0.8843781 0
vn -0.4667711 -0.8843781 0
vn -0.4667711 -0.8843781 0
vn -0.4667711 -0.8843781 0
vn -0.4667711 -0.8843781 0
vn 0.2962924 -0.5583974 0.7748569
vn 0.2962924 -0.5583974 0.7748569
vn 0.2962925 -0.5583974 0.7748569
vn 0.2962924 -0.5583974 0.7748569
vn -0.335008 0.6313614 0.6993942
vn -0.3350081 0.6313614 0.6993943
vn -0.3350081 0.6313614 0.6993943
vn -0.3350081 0.6313614 0.6993942
vn -0.6675991 0 0.744521
vn -0.6675991 0 0.7445209
vn -0.6675991 0 0.7445209
vn -0.6675991 0 0.7445209
vn -0.2962924 -0.5583974 0.7748569
vn -0.2962924 -0.5583974 0.7748569
vn -0.2962924 -0.5583974 0.7748569
vn -0.2962924 -0.5583974 0.7748569
vn 0.6675988 0 0.7445212
vn 0.6675988 0 0.7445213
vn 0.6675988 0 0.7445212
vn 0.6675988 0 0.7445213
vn 0.335008 0.6313614 0.6993944
vn 0.335008 0.6313614 0.6993943
vn 0.335008 0.6313613 0.6993943
vn 0.335008 0.6313613 0.6993943
vn -0.3350081 0.6313614 -0.6993942
vn -0.335008 0.6313614 -0.6993942
vn -0.3350081 0.6313614 -0.6993943
vn -0.335008 0.6313614 -0.6993942
vn 0.2962924 -0.5583974 -0.7748569
vn 0.2962925 -0.5583974 -0.7748569
vn 0.2962924 -0.5583974 -0.7748569
vn 0.2962924 -0.5583974 -0.7748569
vn -0.6675991 0 -0.7445209
vn -0.6675991 0 -0.7445209
vn -0.6675991 0 -0.7445209
vn -0.6675991 0 -0.7445209
vn 0.335008 0.6313613 -0.6993943
vn 0.335008 0.6313613 -0.6993943
vn 0.335008 0.6313614 -0.6993943
vn 0.335008 0.6313613 -0.6993943
vn 0.6675988 0 -0.7445213
vn 0.6675988 0 -0.7445212
vn 0.6675988 0 -0.7445213
vn 0.6675988 0 -0.7445212
vn -0.2962924 -0.5583974 -0.7748569
vn -0.2962924 -0.5583974 -0.7748569
vn -0.2962924 -0.5583974 -0.7748569
vn -0.2962924 -0.5583974 -0.7748569
g FX_Arrow_01_0
f 3/3/3 2/2/2 1/1/1
f 4/4/4 3/3/3 1/1/1
f 4/4/4 5/5/5 3/3/3
f 5/5/5 6/6/6 3/3/3
f 9/9/9 8/8/8 7/7/7
f 10/10/10 9/9/9 7/7/7
f 13/13/13 12/12/12 11/11/11
f 14/14/14 13/13/13 11/11/11
f 14/14/14 15/15/15 13/13/13
f 15/15/15 16/16/16 13/13/13
f 19/19/19 18/18/18 17/17/17
f 20/20/20 19/19/19 17/17/17
f 23/23/23 22/22/22 21/21/21
f 24/24/24 23/23/23 21/21/21
f 27/27/27 26/26/26 25/25/25
f 28/28/28 27/27/27 25/25/25
f 31/31/31 30/30/30 29/29/29
f 32/32/32 31/31/31 29/29/29
f 35/35/35 34/34/34 33/33/33
f 36/36/36 35/35/35 33/33/33
f 39/39/39 38/38/38 37/37/37
f 40/40/40 39/39/39 37/37/37
f 43/43/43 42/42/42 41/41/41
f 44/44/44 43/43/43 41/41/41
f 47/47/47 46/46/46 45/45/45
f 48/48/48 47/47/47 45/45/45
f 51/51/51 50/50/50 49/49/49
f 52/52/52 51/51/51 49/49/49
f 55/55/55 54/54/54 53/53/53
f 56/56/56 55/55/55 53/53/53
f 59/59/59 58/58/58 57/57/57
f 60/60/60 59/59/59 57/57/57
f 63/63/63 62/62/62 61/61/61
f 64/64/64 63/63/63 61/61/61
f 67/67/67 66/66/66 65/65/65
f 68/68/68 67/67/67 65/65/65
f 71/71/71 70/70/70 69/69/69
f 72/72/72 71/71/71 69/69/69
f 75/75/75 74/74/74 73/73/73
f 76/76/76 75/75/75 73/73/73
f 79/79/79 78/78/78 77/77/77
f 80/80/80 79/79/79 77/77/77
f 83/83/83 82/82/82 81/81/81
f 84/84/84 83/83/83 81/81/81
