g FX_Cylinder_01
v 0.06683303 0 -0.03218508
v 0.06683303 0.1824881 -0.03218508
v 0.0462499 0.1824881 -0.05799552
v 0.0462499 0 -0.05799552
v 0.0462499 0 -0.05799552
v 0.0462499 0.1824881 -0.05799552
v 0.01650641 0.1824881 -0.07231925
v 0.01650641 0 -0.07231925
v 0.01650641 0 -0.07231925
v 0.01650641 0.1824881 -0.07231925
v -0.01650639 0.1824881 -0.07231925
v -0.01650639 0 -0.07231925
v -0.01650639 0 -0.07231925
v -0.01650639 0.1824881 -0.07231925
v -0.04624989 0.1824881 -0.05799554
v -0.04624989 0 -0.05799554
v -0.04624989 0 -0.05799554
v -0.04624989 0.1824881 -0.05799554
v -0.06683303 0.1824881 -0.0321851
v -0.06683303 0 -0.0321851
v -0.06683303 0 -0.0321851
v -0.06683303 0.1824881 -0.0321851
v -0.07417907 0.1824881 -1.547496E-08
v -0.07417907 0 -1.547496E-08
v -0.07417907 0 -1.547496E-08
v -0.07417907 0.1824881 -1.547496E-08
v -0.06683304 0.1824881 0.03218508
v -0.06683304 0 0.03218508
v -0.06683304 0 0.03218508
v -0.06683304 0.1824881 0.03218508
v -0.0462499 0.1824881 0.05799552
v -0.0462499 0 0.05799552
v -0.0462499 0 0.05799552
v -0.0462499 0.1824881 0.05799552
v -0.01650641 0.1824881 0.07231925
v -0.01650641 0 0.07231925
v -0.01650641 0 0.07231925
v -0.01650641 0.1824881 0.07231925
v 0.01650639 0.1824881 0.07231925
v 0.01650639 0 0.07231925
v 0.01650639 0 0.07231925
v 0.01650639 0.1824881 0.07231925
v 0.04624989 0.1824881 0.05799554
v 0.04624989 0 0.05799554
v 0.04624989 0 0.05799554
v 0.04624989 0.1824881 0.05799554
v 0.06683303 0.1824881 0.03218509
v 0.06683303 0 0.03218509
v 0.06683303 0 0.03218509
v 0.06683303 0.1824881 0.03218509
v 0.07417907 0.1824881 -2.210709E-09
v 0.07417907 0 -2.210709E-09
v 0.07417907 0 -2.210709E-09
v 0.07417907 0.1824881 -2.210709E-09
v 0.06683303 0.1824881 -0.03218508
v 0.06683303 0 -0.03218508
vt 0.7225208 0
vt 0.7225208 1
vt 0.9009688 1
vt 0.9009688 0
vt 0.9009688 0
vt 0.9009688 1
vt 1 1
vt 1 0
vt 1 0
vt 1 1
vt 1 1
vt 1 0
vt 1 0
vt 1 1
vt 0.9009689 1
vt 0.9009689 0
vt 0.9009689 0
vt 0.9009689 1
vt 0.7225211 1
vt 0.7225211 0
vt 0.7225211 0
vt 0.7225211 1
vt 0.5000001 1
vt 0.5000001 0
vt 0.5000001 0
vt 0.5000001 1
vt 0.2774792 1
vt 0.2774792 0
vt 0.2774792 0
vt 0.2774792 1
vt 0.09903121 1
vt 0.09903121 0
vt 0.09903121 0
vt 0.09903121 1
vt 0 1
vt 0 0
vt 0 0
vt 0 1
vt 0 1
vt 0 0
vt 0 0
vt 0 1
vt 0.09903109 1
vt 0.09903109 0
vt 0.09903109 0
vt 0.09903109 1
vt 0.2774791 1
vt 0.2774791 0
vt 0.2774791 0
vt 0.2774791 1
vt 0.5 1
vt 0.5 0
vt 0.5 0
vt 0.5 1
vt 0.7225208 1
vt 0.7225208 0
vn 0.7818314 0 -0.6234898
vn 0.7818314 0 -0.6234898
vn 0.7818314 0 -0.6234898
vn 0.7818314 0 -0.6234898
vn 0.4338841 0 -0.9009687
vn 0.4338841 0 -0.9009687
vn 0.4338841 0 -0.9009687
vn 0.4338841 0 -0.9009687
vn 0 0 -1
vn 0 0 -1
vn 0 0 -1
vn 0 0 -1
vn -0.4338835 0 -0.9009689
vn -0.4338835 0 -0.9009689
vn -0.4338835 0 -0.9009689
vn -0.4338835 0 -0.9009689
vn -0.7818313 0 -0.62349
vn -0.7818313 0 -0.62349
vn -0.7818313 0 -0.62349
vn -0.7818313 0 -0.62349
vn -0.9749279 0 -0.2225211
vn -0.9749279 0 -0.2225211
vn -0.9749279 0 -0.2225211
vn -0.9749279 0 -0.2225211
vn -0.974928 0 0.2225207
vn -0.974928 0 0.2225207
vn -0.974928 0 0.2225207
vn -0.974928 0 0.2225207
vn -0.7818315 0 0.6234897
vn -0.7818315 0 0.6234897
vn -0.7818315 0 0.6234897
vn -0.7818315 0 0.6234897
vn -0.4338839 0 0.9009687
vn -0.4338839 0 0.9009687
vn -0.4338839 0 0.9009687
vn -0.4338839 0 0.9009687
vn 0 0 1
vn 0 0 1
vn 0 0 1
vn 0 0 1
vn 0.4338836 0 0.9009689
vn 0.4338836 0 0.9009689
vn 0.4338836 0 0.9009689
vn 0.4338836 0 0.9009689
vn 0.7818314 0 0.6234899
vn 0.7818314 0 0.6234899
vn 0.7818314 0 0.6234899
vn 0.7818314 0 0.6234899
vn 0.9749279 0 0.222521
vn 0.9749279 0 0.222521
vn 0.9749279 0 0.222521
vn 0.9749279 0 0.222521
vn 0.9749279 0 -0.2225209
vn 0.9749279 0 -0.2225209
vn 0.9749279 0 -0.2225209
vn 0.9749279 0 -0.2225209
g FX_Cylinder_01_0
f 3/3/3 2/2/2 1/1/1
f 4/4/4 3/3/3 1/1/1
f 7/7/7 6/6/6 5/5/5
f 8/8/8 7/7/7 5/5/5
f 11/11/11 10/10/10 9/9/9
f 12/12/12 11/11/11 9/9/9
f 15/15/15 14/14/14 13/13/13
f 16/16/16 15/15/15 13/13/13
f 19/19/19 18/18/18 17/17/17
f 20/20/20 19/19/19 17/17/17
f 23/23/23 22/22/22 21/21/21
f 24/24/24 23/23/23 21/21/21
f 27/27/27 26/26/26 25/25/25
f 28/28/28 27/27/27 25/25/25
f 31/31/31 30/30/30 29/29/29
f 32/32/32 31/31/31 29/29/29
f 35/35/35 34/34/34 33/33/33
f 36/36/36 35/35/35 33/33/33
f 39/39/39 38/38/38 37/37/37
f 40/40/40 39/39/39 37/37/37
f 43/43/43 42/42/42 41/41/41
f 44/44/44 43/43/43 41/41/41
f 47/47/47 46/46/46 45/45/45
f 48/48/48 47/47/47 45/45/45
f 51/51/51 50/50/50 49/49/49
f 52/52/52 51/51/51 49/49/49
f 55/55/55 54/54/54 53/53/53
f 56/56/56 55/55/55 53/53/53
